<mxfile host="app.diagrams.net" agent="Mozilla/5.0 (Windows NT 10.0; Win64; x64) AppleWebKit/537.36 (KHTML, like Gecko) Chrome/125.0.0.0 Safari/537.36" version="24.9.3">
  <diagram id="C5RBs43oDa-KdzZeNtuy" name="Page-1">
    <mxGraphModel dx="2010" dy="1420" grid="0" gridSize="10" guides="1" tooltips="1" connect="1" arrows="1" fold="1" page="0" pageScale="1" pageWidth="1169" pageHeight="827" math="0" shadow="0">
      <root>
        <mxCell id="WIyWlLk6GJQsqaUBKTNV-0" />
        <mxCell id="WIyWlLk6GJQsqaUBKTNV-1" parent="WIyWlLk6GJQsqaUBKTNV-0" />
        <mxCell id="WIyWlLk6GJQsqaUBKTNV-2" value="" style="rounded=0;html=1;jettySize=auto;orthogonalLoop=1;fontSize=17;endArrow=block;endFill=0;endSize=8;strokeWidth=1;shadow=0;labelBackgroundColor=none;edgeStyle=orthogonalEdgeStyle;fontStyle=1" parent="WIyWlLk6GJQsqaUBKTNV-1" source="WIyWlLk6GJQsqaUBKTNV-3" target="WIyWlLk6GJQsqaUBKTNV-6" edge="1">
          <mxGeometry relative="1" as="geometry" />
        </mxCell>
        <mxCell id="WIyWlLk6GJQsqaUBKTNV-3" value="选择支付方式" style="rounded=0;whiteSpace=wrap;html=1;fontSize=17;glass=0;strokeWidth=1;shadow=0;fontStyle=1" parent="WIyWlLk6GJQsqaUBKTNV-1" vertex="1">
          <mxGeometry x="130" y="179" width="120" height="40" as="geometry" />
        </mxCell>
        <mxCell id="WIyWlLk6GJQsqaUBKTNV-5" value="非正常" style="edgeStyle=orthogonalEdgeStyle;rounded=0;html=1;jettySize=auto;orthogonalLoop=1;fontSize=17;endArrow=block;endFill=0;endSize=8;strokeWidth=1;shadow=0;labelBackgroundColor=none;entryX=0;entryY=0.5;entryDx=0;entryDy=0;fontStyle=1" parent="WIyWlLk6GJQsqaUBKTNV-1" source="WIyWlLk6GJQsqaUBKTNV-6" target="n9ziA0_ppnjwsiYsguU1-13" edge="1">
          <mxGeometry y="10" relative="1" as="geometry">
            <mxPoint as="offset" />
            <mxPoint x="330" y="289" as="targetPoint" />
          </mxGeometry>
        </mxCell>
        <mxCell id="n9ziA0_ppnjwsiYsguU1-6" value="&lt;font style=&quot;font-size: 17px;&quot;&gt;正常&lt;/font&gt;" style="edgeStyle=orthogonalEdgeStyle;rounded=0;orthogonalLoop=1;jettySize=auto;html=1;exitX=0.5;exitY=1;exitDx=0;exitDy=0;entryX=0.5;entryY=0;entryDx=0;entryDy=0;labelPosition=right;verticalLabelPosition=middle;align=left;verticalAlign=middle;endArrow=block;endFill=0;fontStyle=1" edge="1" parent="WIyWlLk6GJQsqaUBKTNV-1" source="WIyWlLk6GJQsqaUBKTNV-6" target="n9ziA0_ppnjwsiYsguU1-5">
          <mxGeometry relative="1" as="geometry">
            <mxPoint as="offset" />
          </mxGeometry>
        </mxCell>
        <mxCell id="WIyWlLk6GJQsqaUBKTNV-6" value="判断&lt;div&gt;卡状态&lt;/div&gt;" style="rhombus;whiteSpace=wrap;html=1;shadow=0;fontFamily=Helvetica;fontSize=17;align=center;strokeWidth=1;spacing=6;spacingTop=-4;fontStyle=1" parent="WIyWlLk6GJQsqaUBKTNV-1" vertex="1">
          <mxGeometry x="140" y="249" width="100" height="80" as="geometry" />
        </mxCell>
        <mxCell id="WIyWlLk6GJQsqaUBKTNV-8" value="是" style="rounded=0;html=1;jettySize=auto;orthogonalLoop=1;fontSize=17;endArrow=block;endFill=0;endSize=8;strokeWidth=1;shadow=0;labelBackgroundColor=none;edgeStyle=orthogonalEdgeStyle;fontStyle=1" parent="WIyWlLk6GJQsqaUBKTNV-1" source="WIyWlLk6GJQsqaUBKTNV-10" target="WIyWlLk6GJQsqaUBKTNV-11" edge="1">
          <mxGeometry x="-0.5556" y="20" relative="1" as="geometry">
            <mxPoint as="offset" />
          </mxGeometry>
        </mxCell>
        <mxCell id="n9ziA0_ppnjwsiYsguU1-7" value="否" style="edgeStyle=orthogonalEdgeStyle;rounded=0;orthogonalLoop=1;jettySize=auto;html=1;exitX=1;exitY=0.5;exitDx=0;exitDy=0;entryX=0.5;entryY=1;entryDx=0;entryDy=0;labelPosition=left;verticalLabelPosition=middle;align=right;verticalAlign=middle;fontSize=17;endArrow=block;endFill=0;fontStyle=1" edge="1" parent="WIyWlLk6GJQsqaUBKTNV-1" source="WIyWlLk6GJQsqaUBKTNV-10" target="n9ziA0_ppnjwsiYsguU1-13">
          <mxGeometry x="-0.8286" y="10" relative="1" as="geometry">
            <mxPoint x="390" y="309" as="targetPoint" />
            <mxPoint as="offset" />
          </mxGeometry>
        </mxCell>
        <mxCell id="WIyWlLk6GJQsqaUBKTNV-10" value="支付成功？" style="rhombus;whiteSpace=wrap;html=1;shadow=0;fontFamily=Helvetica;fontSize=17;align=center;strokeWidth=1;spacing=6;spacingTop=-4;fontStyle=1" parent="WIyWlLk6GJQsqaUBKTNV-1" vertex="1">
          <mxGeometry x="140" y="469" width="100" height="80" as="geometry" />
        </mxCell>
        <mxCell id="n9ziA0_ppnjwsiYsguU1-10" style="edgeStyle=orthogonalEdgeStyle;rounded=0;orthogonalLoop=1;jettySize=auto;html=1;exitX=0.5;exitY=1;exitDx=0;exitDy=0;entryX=0.5;entryY=0;entryDx=0;entryDy=0;endArrow=block;endFill=0;fontStyle=1" edge="1" parent="WIyWlLk6GJQsqaUBKTNV-1" source="WIyWlLk6GJQsqaUBKTNV-11" target="n9ziA0_ppnjwsiYsguU1-9">
          <mxGeometry relative="1" as="geometry" />
        </mxCell>
        <mxCell id="WIyWlLk6GJQsqaUBKTNV-11" value="更新卡余额" style="rounded=0;whiteSpace=wrap;html=1;fontSize=17;glass=0;strokeWidth=1;shadow=0;fontStyle=1" parent="WIyWlLk6GJQsqaUBKTNV-1" vertex="1">
          <mxGeometry x="130" y="599" width="120" height="40" as="geometry" />
        </mxCell>
        <mxCell id="n9ziA0_ppnjwsiYsguU1-0" value="" style="rounded=0;html=1;jettySize=auto;orthogonalLoop=1;fontSize=17;endArrow=block;endFill=0;endSize=8;strokeWidth=1;shadow=0;labelBackgroundColor=none;edgeStyle=orthogonalEdgeStyle;fontStyle=1" edge="1" parent="WIyWlLk6GJQsqaUBKTNV-1" source="n9ziA0_ppnjwsiYsguU1-1">
          <mxGeometry relative="1" as="geometry">
            <mxPoint x="190" y="179" as="targetPoint" />
          </mxGeometry>
        </mxCell>
        <mxCell id="n9ziA0_ppnjwsiYsguU1-1" value="输入金额" style="rounded=0;whiteSpace=wrap;html=1;fontSize=17;glass=0;strokeWidth=1;shadow=0;fontStyle=1" vertex="1" parent="WIyWlLk6GJQsqaUBKTNV-1">
          <mxGeometry x="130" y="109" width="120" height="40" as="geometry" />
        </mxCell>
        <mxCell id="n9ziA0_ppnjwsiYsguU1-2" value="" style="rounded=0;html=1;jettySize=auto;orthogonalLoop=1;fontSize=17;endArrow=block;endFill=0;endSize=8;strokeWidth=1;shadow=0;labelBackgroundColor=none;edgeStyle=orthogonalEdgeStyle;exitX=0.5;exitY=1;exitDx=0;exitDy=0;fontStyle=1" edge="1" parent="WIyWlLk6GJQsqaUBKTNV-1" source="n9ziA0_ppnjwsiYsguU1-3">
          <mxGeometry relative="1" as="geometry">
            <mxPoint x="509.5" y="-270" as="targetPoint" />
            <mxPoint x="509.5" y="-360" as="sourcePoint" />
          </mxGeometry>
        </mxCell>
        <mxCell id="n9ziA0_ppnjwsiYsguU1-3" value="开始" style="rounded=1;whiteSpace=wrap;html=1;fontSize=17;glass=0;strokeWidth=1;shadow=0;perimeter=rectanglePerimeter;arcSize=50;fontStyle=1" vertex="1" parent="WIyWlLk6GJQsqaUBKTNV-1">
          <mxGeometry x="450" y="-350" width="120" height="40" as="geometry" />
        </mxCell>
        <mxCell id="n9ziA0_ppnjwsiYsguU1-4" value="" style="rounded=0;html=1;jettySize=auto;orthogonalLoop=1;fontSize=17;endArrow=block;endFill=0;endSize=8;strokeWidth=1;shadow=0;labelBackgroundColor=none;edgeStyle=orthogonalEdgeStyle;entryX=0.5;entryY=0;entryDx=0;entryDy=0;fontStyle=1" edge="1" parent="WIyWlLk6GJQsqaUBKTNV-1" source="n9ziA0_ppnjwsiYsguU1-5" target="WIyWlLk6GJQsqaUBKTNV-10">
          <mxGeometry relative="1" as="geometry">
            <mxPoint x="190" y="439" as="targetPoint" />
            <Array as="points" />
          </mxGeometry>
        </mxCell>
        <mxCell id="n9ziA0_ppnjwsiYsguU1-5" value="跳转到&lt;div&gt;支付页面&lt;/div&gt;" style="rounded=0;whiteSpace=wrap;html=1;fontSize=17;glass=0;strokeWidth=1;shadow=0;fontStyle=1" vertex="1" parent="WIyWlLk6GJQsqaUBKTNV-1">
          <mxGeometry x="130" y="379" width="120" height="40" as="geometry" />
        </mxCell>
        <mxCell id="n9ziA0_ppnjwsiYsguU1-8" value="" style="rounded=0;html=1;jettySize=auto;orthogonalLoop=1;fontSize=17;endArrow=block;endFill=0;endSize=8;strokeWidth=1;shadow=0;labelBackgroundColor=none;edgeStyle=orthogonalEdgeStyle;fontStyle=1" edge="1" parent="WIyWlLk6GJQsqaUBKTNV-1" source="n9ziA0_ppnjwsiYsguU1-9">
          <mxGeometry relative="1" as="geometry">
            <mxPoint x="190" y="759" as="targetPoint" />
          </mxGeometry>
        </mxCell>
        <mxCell id="n9ziA0_ppnjwsiYsguU1-9" value="增加充值记录" style="rounded=0;whiteSpace=wrap;html=1;fontSize=17;glass=0;strokeWidth=1;shadow=0;fontStyle=1" vertex="1" parent="WIyWlLk6GJQsqaUBKTNV-1">
          <mxGeometry x="130" y="669" width="120" height="40" as="geometry" />
        </mxCell>
        <mxCell id="n9ziA0_ppnjwsiYsguU1-11" value="" style="rounded=0;html=1;jettySize=auto;orthogonalLoop=1;fontSize=17;endArrow=block;endFill=0;endSize=8;strokeWidth=1;shadow=0;labelBackgroundColor=none;edgeStyle=orthogonalEdgeStyle;fontStyle=1" edge="1" parent="WIyWlLk6GJQsqaUBKTNV-1" source="n9ziA0_ppnjwsiYsguU1-12">
          <mxGeometry relative="1" as="geometry">
            <mxPoint x="190" y="109" as="targetPoint" />
          </mxGeometry>
        </mxCell>
        <mxCell id="n9ziA0_ppnjwsiYsguU1-12" value="进入充值页面" style="rounded=0;whiteSpace=wrap;html=1;fontSize=17;glass=0;strokeWidth=1;shadow=0;fontStyle=1" vertex="1" parent="WIyWlLk6GJQsqaUBKTNV-1">
          <mxGeometry x="130" y="49" width="120" height="40" as="geometry" />
        </mxCell>
        <mxCell id="n9ziA0_ppnjwsiYsguU1-14" style="edgeStyle=orthogonalEdgeStyle;rounded=0;orthogonalLoop=1;jettySize=auto;html=1;exitX=0.5;exitY=0;exitDx=0;exitDy=0;entryX=1;entryY=0.5;entryDx=0;entryDy=0;fontStyle=1;endArrow=block;endFill=0;" edge="1" parent="WIyWlLk6GJQsqaUBKTNV-1" source="n9ziA0_ppnjwsiYsguU1-13" target="n9ziA0_ppnjwsiYsguU1-12">
          <mxGeometry relative="1" as="geometry" />
        </mxCell>
        <mxCell id="n9ziA0_ppnjwsiYsguU1-13" value="&lt;font style=&quot;font-size: 17px;&quot;&gt;提示充值失败&lt;/font&gt;" style="shape=parallelogram;perimeter=parallelogramPerimeter;whiteSpace=wrap;html=1;fixedSize=1;fontStyle=1" vertex="1" parent="WIyWlLk6GJQsqaUBKTNV-1">
          <mxGeometry x="340" y="259" width="120" height="60" as="geometry" />
        </mxCell>
        <mxCell id="n9ziA0_ppnjwsiYsguU1-17" value="结束" style="rounded=1;whiteSpace=wrap;html=1;fontSize=17;glass=0;strokeWidth=1;shadow=0;perimeter=rectanglePerimeter;arcSize=50;fontStyle=1" vertex="1" parent="WIyWlLk6GJQsqaUBKTNV-1">
          <mxGeometry x="130" y="759" width="120" height="40" as="geometry" />
        </mxCell>
        <mxCell id="n9ziA0_ppnjwsiYsguU1-18" value="" style="rounded=0;html=1;jettySize=auto;orthogonalLoop=1;fontSize=17;endArrow=block;endFill=0;endSize=8;strokeWidth=1;shadow=0;labelBackgroundColor=none;edgeStyle=orthogonalEdgeStyle;fontStyle=1" edge="1" parent="WIyWlLk6GJQsqaUBKTNV-1" source="n9ziA0_ppnjwsiYsguU1-19" target="n9ziA0_ppnjwsiYsguU1-22">
          <mxGeometry relative="1" as="geometry" />
        </mxCell>
        <mxCell id="n9ziA0_ppnjwsiYsguU1-19" value="输入卡号" style="rounded=0;whiteSpace=wrap;html=1;fontSize=17;glass=0;strokeWidth=1;shadow=0;fontStyle=1" vertex="1" parent="WIyWlLk6GJQsqaUBKTNV-1">
          <mxGeometry x="377" y="1680" width="120" height="40" as="geometry" />
        </mxCell>
        <mxCell id="n9ziA0_ppnjwsiYsguU1-20" value="非正常" style="edgeStyle=orthogonalEdgeStyle;rounded=0;html=1;jettySize=auto;orthogonalLoop=1;fontSize=17;endArrow=block;endFill=0;endSize=8;strokeWidth=1;shadow=0;labelBackgroundColor=none;entryX=0;entryY=0.5;entryDx=0;entryDy=0;fontStyle=1" edge="1" parent="WIyWlLk6GJQsqaUBKTNV-1" source="n9ziA0_ppnjwsiYsguU1-22" target="n9ziA0_ppnjwsiYsguU1-39">
          <mxGeometry y="10" relative="1" as="geometry">
            <mxPoint as="offset" />
            <mxPoint x="577" y="1790" as="targetPoint" />
          </mxGeometry>
        </mxCell>
        <mxCell id="n9ziA0_ppnjwsiYsguU1-21" value="&lt;font style=&quot;font-size: 17px;&quot;&gt;正常&lt;/font&gt;" style="edgeStyle=orthogonalEdgeStyle;rounded=0;orthogonalLoop=1;jettySize=auto;html=1;exitX=0.5;exitY=1;exitDx=0;exitDy=0;entryX=0.5;entryY=0;entryDx=0;entryDy=0;labelPosition=right;verticalLabelPosition=middle;align=left;verticalAlign=middle;endArrow=block;endFill=0;fontStyle=1" edge="1" parent="WIyWlLk6GJQsqaUBKTNV-1" source="n9ziA0_ppnjwsiYsguU1-22" target="n9ziA0_ppnjwsiYsguU1-25">
          <mxGeometry relative="1" as="geometry">
            <mxPoint as="offset" />
            <mxPoint x="437" y="1880" as="targetPoint" />
          </mxGeometry>
        </mxCell>
        <mxCell id="n9ziA0_ppnjwsiYsguU1-22" value="判断&lt;div&gt;卡状态&lt;/div&gt;" style="rhombus;whiteSpace=wrap;html=1;shadow=0;fontFamily=Helvetica;fontSize=17;align=center;strokeWidth=1;spacing=6;spacingTop=-4;fontStyle=1" vertex="1" parent="WIyWlLk6GJQsqaUBKTNV-1">
          <mxGeometry x="387" y="1750" width="100" height="80" as="geometry" />
        </mxCell>
        <mxCell id="n9ziA0_ppnjwsiYsguU1-23" value="是" style="rounded=0;html=1;jettySize=auto;orthogonalLoop=1;fontSize=17;endArrow=block;endFill=0;endSize=8;strokeWidth=1;shadow=0;labelBackgroundColor=none;edgeStyle=orthogonalEdgeStyle;fontStyle=1" edge="1" parent="WIyWlLk6GJQsqaUBKTNV-1" source="n9ziA0_ppnjwsiYsguU1-25" target="n9ziA0_ppnjwsiYsguU1-27">
          <mxGeometry x="-0.5556" y="20" relative="1" as="geometry">
            <mxPoint as="offset" />
          </mxGeometry>
        </mxCell>
        <mxCell id="n9ziA0_ppnjwsiYsguU1-24" value="否" style="edgeStyle=orthogonalEdgeStyle;rounded=0;orthogonalLoop=1;jettySize=auto;html=1;exitX=1;exitY=0.5;exitDx=0;exitDy=0;labelPosition=left;verticalLabelPosition=middle;align=right;verticalAlign=middle;fontSize=17;endArrow=block;endFill=0;entryX=0;entryY=0.5;entryDx=0;entryDy=0;fontStyle=1" edge="1" parent="WIyWlLk6GJQsqaUBKTNV-1" source="n9ziA0_ppnjwsiYsguU1-25" target="n9ziA0_ppnjwsiYsguU1-41">
          <mxGeometry x="-0.6667" y="9" relative="1" as="geometry">
            <mxPoint x="647" y="1925" as="targetPoint" />
            <mxPoint as="offset" />
          </mxGeometry>
        </mxCell>
        <mxCell id="n9ziA0_ppnjwsiYsguU1-25" value="余额充足？" style="rhombus;whiteSpace=wrap;html=1;shadow=0;fontFamily=Helvetica;fontSize=17;align=center;strokeWidth=1;spacing=6;spacingTop=-4;fontStyle=1" vertex="1" parent="WIyWlLk6GJQsqaUBKTNV-1">
          <mxGeometry x="387" y="1885" width="100" height="80" as="geometry" />
        </mxCell>
        <mxCell id="n9ziA0_ppnjwsiYsguU1-26" style="edgeStyle=orthogonalEdgeStyle;rounded=0;orthogonalLoop=1;jettySize=auto;html=1;exitX=0.5;exitY=1;exitDx=0;exitDy=0;entryX=0.5;entryY=0;entryDx=0;entryDy=0;endArrow=block;endFill=0;fontStyle=1" edge="1" parent="WIyWlLk6GJQsqaUBKTNV-1" source="n9ziA0_ppnjwsiYsguU1-27" target="n9ziA0_ppnjwsiYsguU1-35">
          <mxGeometry relative="1" as="geometry" />
        </mxCell>
        <mxCell id="n9ziA0_ppnjwsiYsguU1-27" value="更新卡余额" style="rounded=0;whiteSpace=wrap;html=1;fontSize=17;glass=0;strokeWidth=1;shadow=0;fontStyle=1" vertex="1" parent="WIyWlLk6GJQsqaUBKTNV-1">
          <mxGeometry x="377" y="2005" width="120" height="40" as="geometry" />
        </mxCell>
        <mxCell id="n9ziA0_ppnjwsiYsguU1-28" value="" style="rounded=0;html=1;jettySize=auto;orthogonalLoop=1;fontSize=17;endArrow=block;endFill=0;endSize=8;strokeWidth=1;shadow=0;labelBackgroundColor=none;edgeStyle=orthogonalEdgeStyle;fontStyle=1" edge="1" parent="WIyWlLk6GJQsqaUBKTNV-1" source="n9ziA0_ppnjwsiYsguU1-29">
          <mxGeometry relative="1" as="geometry">
            <mxPoint x="437" y="1680" as="targetPoint" />
          </mxGeometry>
        </mxCell>
        <mxCell id="n9ziA0_ppnjwsiYsguU1-29" value="输入金额" style="rounded=0;whiteSpace=wrap;html=1;fontSize=17;glass=0;strokeWidth=1;shadow=0;fontStyle=1" vertex="1" parent="WIyWlLk6GJQsqaUBKTNV-1">
          <mxGeometry x="377" y="1610" width="120" height="40" as="geometry" />
        </mxCell>
        <mxCell id="n9ziA0_ppnjwsiYsguU1-34" value="" style="rounded=0;html=1;jettySize=auto;orthogonalLoop=1;fontSize=17;endArrow=block;endFill=0;endSize=8;strokeWidth=1;shadow=0;labelBackgroundColor=none;edgeStyle=orthogonalEdgeStyle;entryX=0.5;entryY=0;entryDx=0;entryDy=0;fontStyle=1" edge="1" parent="WIyWlLk6GJQsqaUBKTNV-1" source="n9ziA0_ppnjwsiYsguU1-35" target="n9ziA0_ppnjwsiYsguU1-44">
          <mxGeometry relative="1" as="geometry">
            <mxPoint x="437" y="2166" as="targetPoint" />
          </mxGeometry>
        </mxCell>
        <mxCell id="n9ziA0_ppnjwsiYsguU1-35" value="增加消费记录" style="rounded=0;whiteSpace=wrap;html=1;fontSize=17;glass=0;strokeWidth=1;shadow=0;fontStyle=1" vertex="1" parent="WIyWlLk6GJQsqaUBKTNV-1">
          <mxGeometry x="377" y="2075" width="120" height="40" as="geometry" />
        </mxCell>
        <mxCell id="n9ziA0_ppnjwsiYsguU1-36" value="" style="rounded=0;html=1;jettySize=auto;orthogonalLoop=1;fontSize=17;endArrow=block;endFill=0;endSize=8;strokeWidth=1;shadow=0;labelBackgroundColor=none;edgeStyle=orthogonalEdgeStyle;fontStyle=1" edge="1" parent="WIyWlLk6GJQsqaUBKTNV-1" source="n9ziA0_ppnjwsiYsguU1-37">
          <mxGeometry relative="1" as="geometry">
            <mxPoint x="437" y="1610" as="targetPoint" />
          </mxGeometry>
        </mxCell>
        <mxCell id="n9ziA0_ppnjwsiYsguU1-37" value="进入消费页面" style="rounded=0;whiteSpace=wrap;html=1;fontSize=17;glass=0;strokeWidth=1;shadow=0;fontStyle=1" vertex="1" parent="WIyWlLk6GJQsqaUBKTNV-1">
          <mxGeometry x="377" y="1550" width="120" height="40" as="geometry" />
        </mxCell>
        <mxCell id="n9ziA0_ppnjwsiYsguU1-38" style="edgeStyle=orthogonalEdgeStyle;rounded=0;orthogonalLoop=1;jettySize=auto;html=1;exitX=0.5;exitY=0;exitDx=0;exitDy=0;entryX=1;entryY=0.5;entryDx=0;entryDy=0;fontStyle=1" edge="1" parent="WIyWlLk6GJQsqaUBKTNV-1" source="n9ziA0_ppnjwsiYsguU1-39" target="n9ziA0_ppnjwsiYsguU1-37">
          <mxGeometry relative="1" as="geometry" />
        </mxCell>
        <mxCell id="n9ziA0_ppnjwsiYsguU1-39" value="&lt;font style=&quot;font-size: 17px;&quot;&gt;提示&lt;/font&gt;&lt;div&gt;&lt;font style=&quot;font-size: 17px;&quot;&gt;卡状态异常&lt;/font&gt;&lt;/div&gt;" style="shape=parallelogram;perimeter=parallelogramPerimeter;whiteSpace=wrap;html=1;fixedSize=1;fontStyle=1" vertex="1" parent="WIyWlLk6GJQsqaUBKTNV-1">
          <mxGeometry x="587" y="1760" width="120" height="60" as="geometry" />
        </mxCell>
        <mxCell id="n9ziA0_ppnjwsiYsguU1-40" value="结束" style="rounded=1;whiteSpace=wrap;html=1;fontSize=17;glass=0;strokeWidth=1;shadow=0;perimeter=rectanglePerimeter;arcSize=50;fontStyle=1" vertex="1" parent="WIyWlLk6GJQsqaUBKTNV-1">
          <mxGeometry x="377" y="2215" width="120" height="40" as="geometry" />
        </mxCell>
        <mxCell id="n9ziA0_ppnjwsiYsguU1-42" style="edgeStyle=orthogonalEdgeStyle;rounded=0;orthogonalLoop=1;jettySize=auto;html=1;exitX=1;exitY=0.5;exitDx=0;exitDy=0;entryX=1;entryY=0.5;entryDx=0;entryDy=0;fontStyle=1" edge="1" parent="WIyWlLk6GJQsqaUBKTNV-1" source="n9ziA0_ppnjwsiYsguU1-41" target="n9ziA0_ppnjwsiYsguU1-37">
          <mxGeometry relative="1" as="geometry">
            <Array as="points">
              <mxPoint x="728" y="1925" />
              <mxPoint x="728" y="1570" />
            </Array>
          </mxGeometry>
        </mxCell>
        <mxCell id="n9ziA0_ppnjwsiYsguU1-41" value="&lt;font style=&quot;font-size: 17px;&quot;&gt;提示&lt;/font&gt;&lt;div&gt;&lt;font style=&quot;font-size: 17px;&quot;&gt;余额不足&lt;/font&gt;&lt;/div&gt;" style="shape=parallelogram;perimeter=parallelogramPerimeter;whiteSpace=wrap;html=1;fixedSize=1;fontStyle=1" vertex="1" parent="WIyWlLk6GJQsqaUBKTNV-1">
          <mxGeometry x="587" y="1895" width="120" height="60" as="geometry" />
        </mxCell>
        <mxCell id="n9ziA0_ppnjwsiYsguU1-43" value="" style="rounded=0;html=1;jettySize=auto;orthogonalLoop=1;fontSize=17;endArrow=block;endFill=0;endSize=8;strokeWidth=1;shadow=0;labelBackgroundColor=none;edgeStyle=orthogonalEdgeStyle;entryX=0.5;entryY=0;entryDx=0;entryDy=0;fontStyle=1" edge="1" parent="WIyWlLk6GJQsqaUBKTNV-1" source="n9ziA0_ppnjwsiYsguU1-44" target="n9ziA0_ppnjwsiYsguU1-40">
          <mxGeometry relative="1" as="geometry">
            <mxPoint x="587" y="2196" as="targetPoint" />
          </mxGeometry>
        </mxCell>
        <mxCell id="n9ziA0_ppnjwsiYsguU1-44" value="商家记账" style="rounded=0;whiteSpace=wrap;html=1;fontSize=17;glass=0;strokeWidth=1;shadow=0;fontStyle=1" vertex="1" parent="WIyWlLk6GJQsqaUBKTNV-1">
          <mxGeometry x="377" y="2146" width="120" height="40" as="geometry" />
        </mxCell>
        <mxCell id="n9ziA0_ppnjwsiYsguU1-45" value="" style="rounded=0;html=1;jettySize=auto;orthogonalLoop=1;fontSize=17;endArrow=block;endFill=0;endSize=8;strokeWidth=1;shadow=0;labelBackgroundColor=none;edgeStyle=orthogonalEdgeStyle;fontStyle=1" edge="1" parent="WIyWlLk6GJQsqaUBKTNV-1" source="n9ziA0_ppnjwsiYsguU1-46" target="n9ziA0_ppnjwsiYsguU1-49">
          <mxGeometry relative="1" as="geometry" />
        </mxCell>
        <mxCell id="n9ziA0_ppnjwsiYsguU1-46" value="输入卡号" style="rounded=0;whiteSpace=wrap;html=1;fontSize=17;glass=0;strokeWidth=1;shadow=0;fontStyle=1" vertex="1" parent="WIyWlLk6GJQsqaUBKTNV-1">
          <mxGeometry x="480" y="190" width="120" height="40" as="geometry" />
        </mxCell>
        <mxCell id="n9ziA0_ppnjwsiYsguU1-47" value="已挂失" style="edgeStyle=orthogonalEdgeStyle;rounded=0;html=1;jettySize=auto;orthogonalLoop=1;fontSize=17;endArrow=block;endFill=0;endSize=8;strokeWidth=1;shadow=0;labelBackgroundColor=none;entryX=0;entryY=0.5;entryDx=0;entryDy=0;fontStyle=1" edge="1" parent="WIyWlLk6GJQsqaUBKTNV-1" source="n9ziA0_ppnjwsiYsguU1-49" target="n9ziA0_ppnjwsiYsguU1-64">
          <mxGeometry y="10" relative="1" as="geometry">
            <mxPoint as="offset" />
            <mxPoint x="680" y="300" as="targetPoint" />
          </mxGeometry>
        </mxCell>
        <mxCell id="n9ziA0_ppnjwsiYsguU1-48" value="&lt;font style=&quot;font-size: 17px;&quot;&gt;未挂失&lt;/font&gt;" style="edgeStyle=orthogonalEdgeStyle;rounded=0;orthogonalLoop=1;jettySize=auto;html=1;exitX=0.5;exitY=1;exitDx=0;exitDy=0;entryX=0.5;entryY=0;entryDx=0;entryDy=0;labelPosition=right;verticalLabelPosition=middle;align=left;verticalAlign=middle;endArrow=block;endFill=0;fontStyle=1" edge="1" parent="WIyWlLk6GJQsqaUBKTNV-1" source="n9ziA0_ppnjwsiYsguU1-49" target="n9ziA0_ppnjwsiYsguU1-52">
          <mxGeometry relative="1" as="geometry">
            <mxPoint as="offset" />
            <mxPoint x="540" y="390" as="targetPoint" />
          </mxGeometry>
        </mxCell>
        <mxCell id="n9ziA0_ppnjwsiYsguU1-49" value="判断&lt;div&gt;卡状态&lt;/div&gt;" style="rhombus;whiteSpace=wrap;html=1;shadow=0;fontFamily=Helvetica;fontSize=17;align=center;strokeWidth=1;spacing=6;spacingTop=-4;fontStyle=1" vertex="1" parent="WIyWlLk6GJQsqaUBKTNV-1">
          <mxGeometry x="490" y="260" width="100" height="80" as="geometry" />
        </mxCell>
        <mxCell id="n9ziA0_ppnjwsiYsguU1-50" value="正确" style="rounded=0;html=1;jettySize=auto;orthogonalLoop=1;fontSize=17;endArrow=block;endFill=0;endSize=8;strokeWidth=1;shadow=0;labelBackgroundColor=none;edgeStyle=orthogonalEdgeStyle;fontStyle=1" edge="1" parent="WIyWlLk6GJQsqaUBKTNV-1" source="n9ziA0_ppnjwsiYsguU1-52" target="n9ziA0_ppnjwsiYsguU1-54">
          <mxGeometry x="-0.5556" y="20" relative="1" as="geometry">
            <mxPoint as="offset" />
          </mxGeometry>
        </mxCell>
        <mxCell id="n9ziA0_ppnjwsiYsguU1-51" value="错误" style="edgeStyle=orthogonalEdgeStyle;rounded=0;orthogonalLoop=1;jettySize=auto;html=1;exitX=1;exitY=0.5;exitDx=0;exitDy=0;labelPosition=left;verticalLabelPosition=middle;align=right;verticalAlign=middle;fontSize=17;endArrow=block;endFill=0;entryX=0;entryY=0.5;entryDx=0;entryDy=0;fontStyle=1" edge="1" parent="WIyWlLk6GJQsqaUBKTNV-1" source="n9ziA0_ppnjwsiYsguU1-52" target="n9ziA0_ppnjwsiYsguU1-67">
          <mxGeometry x="0.0909" y="9" relative="1" as="geometry">
            <mxPoint x="750" y="435" as="targetPoint" />
            <mxPoint as="offset" />
          </mxGeometry>
        </mxCell>
        <mxCell id="n9ziA0_ppnjwsiYsguU1-52" value="检查&lt;div&gt;查询密码&lt;/div&gt;" style="rhombus;whiteSpace=wrap;html=1;shadow=0;fontFamily=Helvetica;fontSize=17;align=center;strokeWidth=1;spacing=6;spacingTop=-4;fontStyle=1" vertex="1" parent="WIyWlLk6GJQsqaUBKTNV-1">
          <mxGeometry x="490" y="395" width="100" height="80" as="geometry" />
        </mxCell>
        <mxCell id="n9ziA0_ppnjwsiYsguU1-53" style="edgeStyle=orthogonalEdgeStyle;rounded=0;orthogonalLoop=1;jettySize=auto;html=1;exitX=0.5;exitY=1;exitDx=0;exitDy=0;entryX=0.5;entryY=0;entryDx=0;entryDy=0;endArrow=block;endFill=0;fontStyle=1" edge="1" parent="WIyWlLk6GJQsqaUBKTNV-1" source="n9ziA0_ppnjwsiYsguU1-54">
          <mxGeometry relative="1" as="geometry">
            <mxPoint x="540" y="585" as="targetPoint" />
          </mxGeometry>
        </mxCell>
        <mxCell id="n9ziA0_ppnjwsiYsguU1-54" value="更新卡状态" style="rounded=0;whiteSpace=wrap;html=1;fontSize=17;glass=0;strokeWidth=1;shadow=0;fontStyle=1" vertex="1" parent="WIyWlLk6GJQsqaUBKTNV-1">
          <mxGeometry x="480" y="515" width="120" height="40" as="geometry" />
        </mxCell>
        <mxCell id="n9ziA0_ppnjwsiYsguU1-55" value="" style="rounded=0;html=1;jettySize=auto;orthogonalLoop=1;fontSize=17;endArrow=block;endFill=0;endSize=8;strokeWidth=1;shadow=0;labelBackgroundColor=none;edgeStyle=orthogonalEdgeStyle;fontStyle=1" edge="1" parent="WIyWlLk6GJQsqaUBKTNV-1" source="n9ziA0_ppnjwsiYsguU1-56">
          <mxGeometry relative="1" as="geometry">
            <mxPoint x="540" y="190" as="targetPoint" />
          </mxGeometry>
        </mxCell>
        <mxCell id="n9ziA0_ppnjwsiYsguU1-56" value="输入查询密码" style="rounded=0;whiteSpace=wrap;html=1;fontSize=17;glass=0;strokeWidth=1;shadow=0;fontStyle=1" vertex="1" parent="WIyWlLk6GJQsqaUBKTNV-1">
          <mxGeometry x="480" y="120" width="120" height="40" as="geometry" />
        </mxCell>
        <mxCell id="n9ziA0_ppnjwsiYsguU1-61" value="" style="rounded=0;html=1;jettySize=auto;orthogonalLoop=1;fontSize=17;endArrow=block;endFill=0;endSize=8;strokeWidth=1;shadow=0;labelBackgroundColor=none;edgeStyle=orthogonalEdgeStyle;fontStyle=1" edge="1" parent="WIyWlLk6GJQsqaUBKTNV-1" source="n9ziA0_ppnjwsiYsguU1-62">
          <mxGeometry relative="1" as="geometry">
            <mxPoint x="540" y="120" as="targetPoint" />
          </mxGeometry>
        </mxCell>
        <mxCell id="n9ziA0_ppnjwsiYsguU1-62" value="进入挂失页面" style="rounded=0;whiteSpace=wrap;html=1;fontSize=17;glass=0;strokeWidth=1;shadow=0;fontStyle=1" vertex="1" parent="WIyWlLk6GJQsqaUBKTNV-1">
          <mxGeometry x="480" y="60" width="120" height="40" as="geometry" />
        </mxCell>
        <mxCell id="n9ziA0_ppnjwsiYsguU1-63" style="edgeStyle=orthogonalEdgeStyle;rounded=0;orthogonalLoop=1;jettySize=auto;html=1;exitX=0.5;exitY=0;exitDx=0;exitDy=0;entryX=1;entryY=0.5;entryDx=0;entryDy=0;endArrow=block;endFill=0;fontStyle=1" edge="1" parent="WIyWlLk6GJQsqaUBKTNV-1" source="n9ziA0_ppnjwsiYsguU1-64" target="n9ziA0_ppnjwsiYsguU1-62">
          <mxGeometry relative="1" as="geometry" />
        </mxCell>
        <mxCell id="n9ziA0_ppnjwsiYsguU1-64" value="&lt;font style=&quot;font-size: 17px;&quot;&gt;提示&lt;/font&gt;&lt;div&gt;&lt;font style=&quot;font-size: 17px;&quot;&gt;卡已挂失&lt;/font&gt;&lt;/div&gt;" style="shape=parallelogram;perimeter=parallelogramPerimeter;whiteSpace=wrap;html=1;fixedSize=1;fontStyle=1" vertex="1" parent="WIyWlLk6GJQsqaUBKTNV-1">
          <mxGeometry x="690" y="270" width="120" height="60" as="geometry" />
        </mxCell>
        <mxCell id="n9ziA0_ppnjwsiYsguU1-65" value="结束" style="rounded=1;whiteSpace=wrap;html=1;fontSize=17;glass=0;strokeWidth=1;shadow=0;perimeter=rectanglePerimeter;arcSize=50;fontStyle=1" vertex="1" parent="WIyWlLk6GJQsqaUBKTNV-1">
          <mxGeometry x="480" y="585" width="120" height="40" as="geometry" />
        </mxCell>
        <mxCell id="n9ziA0_ppnjwsiYsguU1-66" style="edgeStyle=orthogonalEdgeStyle;rounded=0;orthogonalLoop=1;jettySize=auto;html=1;exitX=1;exitY=0.5;exitDx=0;exitDy=0;entryX=1;entryY=0.5;entryDx=0;entryDy=0;endArrow=block;endFill=0;fontStyle=1" edge="1" parent="WIyWlLk6GJQsqaUBKTNV-1" source="n9ziA0_ppnjwsiYsguU1-67" target="n9ziA0_ppnjwsiYsguU1-62">
          <mxGeometry relative="1" as="geometry">
            <Array as="points">
              <mxPoint x="820" y="435" />
              <mxPoint x="820" y="80" />
            </Array>
          </mxGeometry>
        </mxCell>
        <mxCell id="n9ziA0_ppnjwsiYsguU1-67" value="&lt;font style=&quot;font-size: 17px;&quot;&gt;提示&lt;/font&gt;&lt;div&gt;&lt;span style=&quot;font-size: 17px;&quot;&gt;密码错误&lt;/span&gt;&lt;/div&gt;" style="shape=parallelogram;perimeter=parallelogramPerimeter;whiteSpace=wrap;html=1;fixedSize=1;fontStyle=1" vertex="1" parent="WIyWlLk6GJQsqaUBKTNV-1">
          <mxGeometry x="690" y="405" width="120" height="60" as="geometry" />
        </mxCell>
        <mxCell id="n9ziA0_ppnjwsiYsguU1-75" value="未登录" style="edgeStyle=orthogonalEdgeStyle;rounded=0;html=1;jettySize=auto;orthogonalLoop=1;fontSize=17;endArrow=block;endFill=0;endSize=8;strokeWidth=1;shadow=0;labelBackgroundColor=none;entryX=0;entryY=0.5;entryDx=0;entryDy=0;fontStyle=1" edge="1" parent="WIyWlLk6GJQsqaUBKTNV-1" source="n9ziA0_ppnjwsiYsguU1-77">
          <mxGeometry x="-0.0045" y="-11" relative="1" as="geometry">
            <mxPoint y="-23" as="offset" />
            <mxPoint x="670" y="-230" as="targetPoint" />
          </mxGeometry>
        </mxCell>
        <mxCell id="n9ziA0_ppnjwsiYsguU1-76" value="&lt;font style=&quot;font-size: 17px;&quot;&gt;已登录&lt;/font&gt;" style="edgeStyle=orthogonalEdgeStyle;rounded=0;orthogonalLoop=1;jettySize=auto;html=1;exitX=0.5;exitY=1;exitDx=0;exitDy=0;entryX=0.5;entryY=0;entryDx=0;entryDy=0;labelPosition=right;verticalLabelPosition=middle;align=left;verticalAlign=middle;endArrow=block;endFill=0;fontStyle=1" edge="1" parent="WIyWlLk6GJQsqaUBKTNV-1" source="n9ziA0_ppnjwsiYsguU1-77">
          <mxGeometry x="0.0098" relative="1" as="geometry">
            <mxPoint x="510" y="-140" as="targetPoint" />
            <mxPoint as="offset" />
          </mxGeometry>
        </mxCell>
        <mxCell id="n9ziA0_ppnjwsiYsguU1-77" value="判断&lt;div&gt;登录状态&lt;/div&gt;" style="rhombus;whiteSpace=wrap;html=1;shadow=0;fontFamily=Helvetica;fontSize=17;align=center;strokeWidth=1;spacing=6;spacingTop=-4;fontStyle=1" vertex="1" parent="WIyWlLk6GJQsqaUBKTNV-1">
          <mxGeometry x="460" y="-270" width="100" height="80" as="geometry" />
        </mxCell>
        <mxCell id="n9ziA0_ppnjwsiYsguU1-110" style="edgeStyle=orthogonalEdgeStyle;rounded=0;orthogonalLoop=1;jettySize=auto;html=1;exitX=1;exitY=0.5;exitDx=0;exitDy=0;entryX=0;entryY=0.5;entryDx=0;entryDy=0;endArrow=block;endFill=0;fontStyle=1" edge="1" parent="WIyWlLk6GJQsqaUBKTNV-1" source="n9ziA0_ppnjwsiYsguU1-78" target="n9ziA0_ppnjwsiYsguU1-96">
          <mxGeometry relative="1" as="geometry" />
        </mxCell>
        <mxCell id="n9ziA0_ppnjwsiYsguU1-78" value="进入登录页面" style="rounded=0;whiteSpace=wrap;html=1;fontSize=17;glass=0;strokeWidth=1;shadow=0;fontStyle=1" vertex="1" parent="WIyWlLk6GJQsqaUBKTNV-1">
          <mxGeometry x="670" y="-250" width="120" height="40" as="geometry" />
        </mxCell>
        <mxCell id="n9ziA0_ppnjwsiYsguU1-92" value="" style="rounded=0;html=1;jettySize=auto;orthogonalLoop=1;fontSize=17;endArrow=block;endFill=0;endSize=8;strokeWidth=1;shadow=0;labelBackgroundColor=none;edgeStyle=orthogonalEdgeStyle;entryX=0.5;entryY=0;entryDx=0;entryDy=0;fontStyle=1" edge="1" parent="WIyWlLk6GJQsqaUBKTNV-1" source="n9ziA0_ppnjwsiYsguU1-93" target="n9ziA0_ppnjwsiYsguU1-12">
          <mxGeometry relative="1" as="geometry">
            <mxPoint x="510" y="-80" as="targetPoint" />
          </mxGeometry>
        </mxCell>
        <mxCell id="n9ziA0_ppnjwsiYsguU1-94" style="edgeStyle=orthogonalEdgeStyle;rounded=0;orthogonalLoop=1;jettySize=auto;html=1;exitX=0.5;exitY=1;exitDx=0;exitDy=0;entryX=0.5;entryY=0;entryDx=0;entryDy=0;endArrow=block;endFill=0;fontStyle=1" edge="1" parent="WIyWlLk6GJQsqaUBKTNV-1" source="n9ziA0_ppnjwsiYsguU1-93" target="n9ziA0_ppnjwsiYsguU1-62">
          <mxGeometry relative="1" as="geometry">
            <Array as="points">
              <mxPoint x="510" y="-40" />
              <mxPoint x="540" y="-40" />
            </Array>
          </mxGeometry>
        </mxCell>
        <mxCell id="n9ziA0_ppnjwsiYsguU1-131" style="edgeStyle=orthogonalEdgeStyle;rounded=0;orthogonalLoop=1;jettySize=auto;html=1;exitX=0.5;exitY=1;exitDx=0;exitDy=0;entryX=0.5;entryY=0;entryDx=0;entryDy=0;endArrow=block;endFill=0;fontStyle=1" edge="1" parent="WIyWlLk6GJQsqaUBKTNV-1" source="n9ziA0_ppnjwsiYsguU1-93" target="n9ziA0_ppnjwsiYsguU1-125">
          <mxGeometry relative="1" as="geometry">
            <Array as="points">
              <mxPoint x="510" y="-40" />
              <mxPoint x="930" y="-40" />
            </Array>
          </mxGeometry>
        </mxCell>
        <mxCell id="n9ziA0_ppnjwsiYsguU1-151" style="edgeStyle=orthogonalEdgeStyle;rounded=0;orthogonalLoop=1;jettySize=auto;html=1;exitX=0.5;exitY=1;exitDx=0;exitDy=0;entryX=0.5;entryY=0;entryDx=0;entryDy=0;endArrow=block;endFill=0;fontStyle=1" edge="1" parent="WIyWlLk6GJQsqaUBKTNV-1" source="n9ziA0_ppnjwsiYsguU1-93" target="n9ziA0_ppnjwsiYsguU1-145">
          <mxGeometry relative="1" as="geometry">
            <Array as="points">
              <mxPoint x="510" y="-40" />
              <mxPoint x="1330" y="-40" />
            </Array>
          </mxGeometry>
        </mxCell>
        <mxCell id="n9ziA0_ppnjwsiYsguU1-93" value="进入&lt;div&gt;功能选择页面&lt;/div&gt;" style="rounded=0;whiteSpace=wrap;html=1;fontSize=17;glass=0;strokeWidth=1;shadow=0;fontStyle=1" vertex="1" parent="WIyWlLk6GJQsqaUBKTNV-1">
          <mxGeometry x="450" y="-140" width="120" height="40" as="geometry" />
        </mxCell>
        <mxCell id="n9ziA0_ppnjwsiYsguU1-98" style="edgeStyle=orthogonalEdgeStyle;rounded=0;orthogonalLoop=1;jettySize=auto;html=1;exitX=0.5;exitY=0;exitDx=0;exitDy=0;entryX=0.5;entryY=1;entryDx=0;entryDy=0;endArrow=block;endFill=0;fontStyle=1" edge="1" parent="WIyWlLk6GJQsqaUBKTNV-1" source="n9ziA0_ppnjwsiYsguU1-96" target="n9ziA0_ppnjwsiYsguU1-97">
          <mxGeometry relative="1" as="geometry" />
        </mxCell>
        <mxCell id="n9ziA0_ppnjwsiYsguU1-104" value="&lt;font style=&quot;font-size: 17px;&quot;&gt;有&lt;/font&gt;" style="edgeStyle=orthogonalEdgeStyle;rounded=0;orthogonalLoop=1;jettySize=auto;html=1;exitX=1;exitY=0.5;exitDx=0;exitDy=0;entryX=0;entryY=0.5;entryDx=0;entryDy=0;endArrow=block;endFill=0;fontStyle=1" edge="1" parent="WIyWlLk6GJQsqaUBKTNV-1" source="n9ziA0_ppnjwsiYsguU1-96" target="n9ziA0_ppnjwsiYsguU1-99">
          <mxGeometry y="10" relative="1" as="geometry">
            <mxPoint as="offset" />
          </mxGeometry>
        </mxCell>
        <mxCell id="n9ziA0_ppnjwsiYsguU1-96" value="有无账号" style="rhombus;whiteSpace=wrap;html=1;shadow=0;fontFamily=Helvetica;fontSize=17;align=center;strokeWidth=1;spacing=6;spacingTop=-4;fontStyle=1" vertex="1" parent="WIyWlLk6GJQsqaUBKTNV-1">
          <mxGeometry x="810" y="-270" width="100" height="80" as="geometry" />
        </mxCell>
        <mxCell id="n9ziA0_ppnjwsiYsguU1-97" value="注册账号" style="rounded=0;whiteSpace=wrap;html=1;fontSize=17;glass=0;strokeWidth=1;shadow=0;fontStyle=1" vertex="1" parent="WIyWlLk6GJQsqaUBKTNV-1">
          <mxGeometry x="800" y="-360" width="120" height="40" as="geometry" />
        </mxCell>
        <mxCell id="n9ziA0_ppnjwsiYsguU1-99" value="登录" style="rounded=0;whiteSpace=wrap;html=1;fontSize=17;glass=0;strokeWidth=1;shadow=0;fontStyle=1" vertex="1" parent="WIyWlLk6GJQsqaUBKTNV-1">
          <mxGeometry x="970" y="-250" width="120" height="40" as="geometry" />
        </mxCell>
        <mxCell id="n9ziA0_ppnjwsiYsguU1-102" value="&lt;font style=&quot;font-size: 17px;&quot;&gt;否&lt;/font&gt;" style="edgeStyle=orthogonalEdgeStyle;rounded=0;orthogonalLoop=1;jettySize=auto;html=1;exitX=0.5;exitY=0;exitDx=0;exitDy=0;entryX=0.5;entryY=0;entryDx=0;entryDy=0;endArrow=block;endFill=0;fontStyle=1" edge="1" parent="WIyWlLk6GJQsqaUBKTNV-1" source="n9ziA0_ppnjwsiYsguU1-101" target="n9ziA0_ppnjwsiYsguU1-99">
          <mxGeometry x="0.0403" y="-10" relative="1" as="geometry">
            <mxPoint as="offset" />
          </mxGeometry>
        </mxCell>
        <mxCell id="n9ziA0_ppnjwsiYsguU1-103" value="&lt;font style=&quot;font-size: 17px;&quot;&gt;是&lt;/font&gt;" style="edgeStyle=orthogonalEdgeStyle;rounded=0;orthogonalLoop=1;jettySize=auto;html=1;exitX=0.5;exitY=1;exitDx=0;exitDy=0;entryX=1;entryY=0.5;entryDx=0;entryDy=0;endArrow=block;endFill=0;fontStyle=1" edge="1" parent="WIyWlLk6GJQsqaUBKTNV-1" source="n9ziA0_ppnjwsiYsguU1-101" target="n9ziA0_ppnjwsiYsguU1-93">
          <mxGeometry x="-0.9474" y="-10" relative="1" as="geometry">
            <mxPoint as="offset" />
          </mxGeometry>
        </mxCell>
        <mxCell id="n9ziA0_ppnjwsiYsguU1-111" value="" style="edgeStyle=orthogonalEdgeStyle;rounded=0;orthogonalLoop=1;jettySize=auto;html=1;exitX=1;exitY=0.5;exitDx=0;exitDy=0;endArrow=block;endFill=0;fontStyle=1" edge="1" parent="WIyWlLk6GJQsqaUBKTNV-1" source="n9ziA0_ppnjwsiYsguU1-99" target="n9ziA0_ppnjwsiYsguU1-101">
          <mxGeometry relative="1" as="geometry">
            <mxPoint x="1170" y="-230.07407407407413" as="targetPoint" />
            <mxPoint x="1090" y="-230" as="sourcePoint" />
          </mxGeometry>
        </mxCell>
        <mxCell id="n9ziA0_ppnjwsiYsguU1-101" value="登录成功？" style="rhombus;whiteSpace=wrap;html=1;shadow=0;fontFamily=Helvetica;fontSize=17;align=center;strokeWidth=1;spacing=6;spacingTop=-4;fontStyle=1" vertex="1" parent="WIyWlLk6GJQsqaUBKTNV-1">
          <mxGeometry x="1119" y="-270" width="100" height="80" as="geometry" />
        </mxCell>
        <mxCell id="n9ziA0_ppnjwsiYsguU1-112" value="" style="rounded=0;html=1;jettySize=auto;orthogonalLoop=1;fontSize=17;endArrow=block;endFill=0;endSize=8;strokeWidth=1;shadow=0;labelBackgroundColor=none;edgeStyle=orthogonalEdgeStyle;fontStyle=1" edge="1" parent="WIyWlLk6GJQsqaUBKTNV-1" source="n9ziA0_ppnjwsiYsguU1-113" target="n9ziA0_ppnjwsiYsguU1-116">
          <mxGeometry relative="1" as="geometry" />
        </mxCell>
        <mxCell id="n9ziA0_ppnjwsiYsguU1-113" value="输入卡号" style="rounded=0;whiteSpace=wrap;html=1;fontSize=17;glass=0;strokeWidth=1;shadow=0;fontStyle=1" vertex="1" parent="WIyWlLk6GJQsqaUBKTNV-1">
          <mxGeometry x="870" y="179" width="120" height="40" as="geometry" />
        </mxCell>
        <mxCell id="n9ziA0_ppnjwsiYsguU1-114" value="未挂失" style="edgeStyle=orthogonalEdgeStyle;rounded=0;html=1;jettySize=auto;orthogonalLoop=1;fontSize=17;endArrow=block;endFill=0;endSize=8;strokeWidth=1;shadow=0;labelBackgroundColor=none;entryX=0;entryY=0.5;entryDx=0;entryDy=0;fontStyle=1" edge="1" parent="WIyWlLk6GJQsqaUBKTNV-1" source="n9ziA0_ppnjwsiYsguU1-116" target="n9ziA0_ppnjwsiYsguU1-127">
          <mxGeometry y="10" relative="1" as="geometry">
            <mxPoint as="offset" />
            <mxPoint x="1070" y="289" as="targetPoint" />
          </mxGeometry>
        </mxCell>
        <mxCell id="n9ziA0_ppnjwsiYsguU1-115" value="&lt;font style=&quot;font-size: 17px;&quot;&gt;已挂失&lt;/font&gt;" style="edgeStyle=orthogonalEdgeStyle;rounded=0;orthogonalLoop=1;jettySize=auto;html=1;exitX=0.5;exitY=1;exitDx=0;exitDy=0;entryX=0.5;entryY=0;entryDx=0;entryDy=0;labelPosition=right;verticalLabelPosition=middle;align=left;verticalAlign=middle;endArrow=block;endFill=0;fontStyle=1" edge="1" parent="WIyWlLk6GJQsqaUBKTNV-1" source="n9ziA0_ppnjwsiYsguU1-116" target="n9ziA0_ppnjwsiYsguU1-119">
          <mxGeometry relative="1" as="geometry">
            <mxPoint as="offset" />
            <mxPoint x="930" y="379" as="targetPoint" />
          </mxGeometry>
        </mxCell>
        <mxCell id="n9ziA0_ppnjwsiYsguU1-116" value="判断&lt;div&gt;卡状态&lt;/div&gt;" style="rhombus;whiteSpace=wrap;html=1;shadow=0;fontFamily=Helvetica;fontSize=17;align=center;strokeWidth=1;spacing=6;spacingTop=-4;fontStyle=1" vertex="1" parent="WIyWlLk6GJQsqaUBKTNV-1">
          <mxGeometry x="880" y="249" width="100" height="80" as="geometry" />
        </mxCell>
        <mxCell id="n9ziA0_ppnjwsiYsguU1-117" value="正确" style="rounded=0;html=1;jettySize=auto;orthogonalLoop=1;fontSize=17;endArrow=block;endFill=0;endSize=8;strokeWidth=1;shadow=0;labelBackgroundColor=none;edgeStyle=orthogonalEdgeStyle;fontStyle=1" edge="1" parent="WIyWlLk6GJQsqaUBKTNV-1" source="n9ziA0_ppnjwsiYsguU1-119" target="n9ziA0_ppnjwsiYsguU1-121">
          <mxGeometry x="-0.5556" y="20" relative="1" as="geometry">
            <mxPoint as="offset" />
          </mxGeometry>
        </mxCell>
        <mxCell id="n9ziA0_ppnjwsiYsguU1-118" value="错误" style="edgeStyle=orthogonalEdgeStyle;rounded=0;orthogonalLoop=1;jettySize=auto;html=1;exitX=1;exitY=0.5;exitDx=0;exitDy=0;labelPosition=left;verticalLabelPosition=middle;align=right;verticalAlign=middle;fontSize=17;endArrow=block;endFill=0;entryX=0;entryY=0.5;entryDx=0;entryDy=0;fontStyle=1" edge="1" parent="WIyWlLk6GJQsqaUBKTNV-1" source="n9ziA0_ppnjwsiYsguU1-119" target="n9ziA0_ppnjwsiYsguU1-130">
          <mxGeometry x="0.0909" y="9" relative="1" as="geometry">
            <mxPoint x="1140" y="424" as="targetPoint" />
            <mxPoint as="offset" />
          </mxGeometry>
        </mxCell>
        <mxCell id="n9ziA0_ppnjwsiYsguU1-119" value="检查&lt;div&gt;查询密码&lt;/div&gt;" style="rhombus;whiteSpace=wrap;html=1;shadow=0;fontFamily=Helvetica;fontSize=17;align=center;strokeWidth=1;spacing=6;spacingTop=-4;fontStyle=1" vertex="1" parent="WIyWlLk6GJQsqaUBKTNV-1">
          <mxGeometry x="880" y="384" width="100" height="80" as="geometry" />
        </mxCell>
        <mxCell id="n9ziA0_ppnjwsiYsguU1-120" style="edgeStyle=orthogonalEdgeStyle;rounded=0;orthogonalLoop=1;jettySize=auto;html=1;exitX=0.5;exitY=1;exitDx=0;exitDy=0;entryX=0.5;entryY=0;entryDx=0;entryDy=0;endArrow=block;endFill=0;fontStyle=1" edge="1" parent="WIyWlLk6GJQsqaUBKTNV-1" source="n9ziA0_ppnjwsiYsguU1-121">
          <mxGeometry relative="1" as="geometry">
            <mxPoint x="930" y="574" as="targetPoint" />
          </mxGeometry>
        </mxCell>
        <mxCell id="n9ziA0_ppnjwsiYsguU1-121" value="更新卡状态" style="rounded=0;whiteSpace=wrap;html=1;fontSize=17;glass=0;strokeWidth=1;shadow=0;fontStyle=1" vertex="1" parent="WIyWlLk6GJQsqaUBKTNV-1">
          <mxGeometry x="870" y="504" width="120" height="40" as="geometry" />
        </mxCell>
        <mxCell id="n9ziA0_ppnjwsiYsguU1-122" value="" style="rounded=0;html=1;jettySize=auto;orthogonalLoop=1;fontSize=17;endArrow=block;endFill=0;endSize=8;strokeWidth=1;shadow=0;labelBackgroundColor=none;edgeStyle=orthogonalEdgeStyle;fontStyle=1" edge="1" parent="WIyWlLk6GJQsqaUBKTNV-1" source="n9ziA0_ppnjwsiYsguU1-123">
          <mxGeometry relative="1" as="geometry">
            <mxPoint x="930" y="179" as="targetPoint" />
          </mxGeometry>
        </mxCell>
        <mxCell id="n9ziA0_ppnjwsiYsguU1-123" value="输入查询密码" style="rounded=0;whiteSpace=wrap;html=1;fontSize=17;glass=0;strokeWidth=1;shadow=0;fontStyle=1" vertex="1" parent="WIyWlLk6GJQsqaUBKTNV-1">
          <mxGeometry x="870" y="109" width="120" height="40" as="geometry" />
        </mxCell>
        <mxCell id="n9ziA0_ppnjwsiYsguU1-124" value="" style="rounded=0;html=1;jettySize=auto;orthogonalLoop=1;fontSize=17;endArrow=block;endFill=0;endSize=8;strokeWidth=1;shadow=0;labelBackgroundColor=none;edgeStyle=orthogonalEdgeStyle;fontStyle=1" edge="1" parent="WIyWlLk6GJQsqaUBKTNV-1" source="n9ziA0_ppnjwsiYsguU1-125">
          <mxGeometry relative="1" as="geometry">
            <mxPoint x="930" y="109" as="targetPoint" />
          </mxGeometry>
        </mxCell>
        <mxCell id="n9ziA0_ppnjwsiYsguU1-125" value="进入解锁页面" style="rounded=0;whiteSpace=wrap;html=1;fontSize=17;glass=0;strokeWidth=1;shadow=0;fontStyle=1" vertex="1" parent="WIyWlLk6GJQsqaUBKTNV-1">
          <mxGeometry x="870" y="49" width="120" height="40" as="geometry" />
        </mxCell>
        <mxCell id="n9ziA0_ppnjwsiYsguU1-126" style="edgeStyle=orthogonalEdgeStyle;rounded=0;orthogonalLoop=1;jettySize=auto;html=1;exitX=0.5;exitY=0;exitDx=0;exitDy=0;entryX=1;entryY=0.5;entryDx=0;entryDy=0;endArrow=block;endFill=0;fontStyle=1" edge="1" parent="WIyWlLk6GJQsqaUBKTNV-1" source="n9ziA0_ppnjwsiYsguU1-127" target="n9ziA0_ppnjwsiYsguU1-125">
          <mxGeometry relative="1" as="geometry" />
        </mxCell>
        <mxCell id="n9ziA0_ppnjwsiYsguU1-127" value="&lt;font style=&quot;font-size: 17px;&quot;&gt;提示&lt;/font&gt;&lt;div&gt;&lt;font style=&quot;font-size: 17px;&quot;&gt;卡未挂失&lt;/font&gt;&lt;/div&gt;" style="shape=parallelogram;perimeter=parallelogramPerimeter;whiteSpace=wrap;html=1;fixedSize=1;fontStyle=1" vertex="1" parent="WIyWlLk6GJQsqaUBKTNV-1">
          <mxGeometry x="1080" y="259" width="120" height="60" as="geometry" />
        </mxCell>
        <mxCell id="n9ziA0_ppnjwsiYsguU1-128" value="结束" style="rounded=1;whiteSpace=wrap;html=1;fontSize=17;glass=0;strokeWidth=1;shadow=0;perimeter=rectanglePerimeter;arcSize=50;fontStyle=1" vertex="1" parent="WIyWlLk6GJQsqaUBKTNV-1">
          <mxGeometry x="870" y="574" width="120" height="40" as="geometry" />
        </mxCell>
        <mxCell id="n9ziA0_ppnjwsiYsguU1-129" style="edgeStyle=orthogonalEdgeStyle;rounded=0;orthogonalLoop=1;jettySize=auto;html=1;exitX=1;exitY=0.5;exitDx=0;exitDy=0;entryX=1;entryY=0.5;entryDx=0;entryDy=0;endArrow=block;endFill=0;fontStyle=1" edge="1" parent="WIyWlLk6GJQsqaUBKTNV-1" source="n9ziA0_ppnjwsiYsguU1-130" target="n9ziA0_ppnjwsiYsguU1-125">
          <mxGeometry relative="1" as="geometry">
            <Array as="points">
              <mxPoint x="1210" y="424" />
              <mxPoint x="1210" y="69" />
            </Array>
          </mxGeometry>
        </mxCell>
        <mxCell id="n9ziA0_ppnjwsiYsguU1-130" value="&lt;font style=&quot;font-size: 17px;&quot;&gt;提示&lt;/font&gt;&lt;div&gt;&lt;span style=&quot;font-size: 17px;&quot;&gt;密码错误&lt;/span&gt;&lt;/div&gt;" style="shape=parallelogram;perimeter=parallelogramPerimeter;whiteSpace=wrap;html=1;fixedSize=1;fontStyle=1" vertex="1" parent="WIyWlLk6GJQsqaUBKTNV-1">
          <mxGeometry x="1080" y="394" width="120" height="60" as="geometry" />
        </mxCell>
        <mxCell id="n9ziA0_ppnjwsiYsguU1-132" value="" style="rounded=0;html=1;jettySize=auto;orthogonalLoop=1;fontSize=17;endArrow=block;endFill=0;endSize=8;strokeWidth=1;shadow=0;labelBackgroundColor=none;edgeStyle=orthogonalEdgeStyle;fontStyle=1" edge="1" parent="WIyWlLk6GJQsqaUBKTNV-1" source="n9ziA0_ppnjwsiYsguU1-133" target="n9ziA0_ppnjwsiYsguU1-136">
          <mxGeometry relative="1" as="geometry" />
        </mxCell>
        <mxCell id="n9ziA0_ppnjwsiYsguU1-133" value="提交" style="rounded=0;whiteSpace=wrap;html=1;fontSize=17;glass=0;strokeWidth=1;shadow=0;fontStyle=1" vertex="1" parent="WIyWlLk6GJQsqaUBKTNV-1">
          <mxGeometry x="1270" y="179" width="120" height="40" as="geometry" />
        </mxCell>
        <mxCell id="n9ziA0_ppnjwsiYsguU1-134" value="否" style="edgeStyle=orthogonalEdgeStyle;rounded=0;html=1;jettySize=auto;orthogonalLoop=1;fontSize=17;endArrow=block;endFill=0;endSize=8;strokeWidth=1;shadow=0;labelBackgroundColor=none;entryX=0;entryY=0.5;entryDx=0;entryDy=0;fontStyle=1" edge="1" parent="WIyWlLk6GJQsqaUBKTNV-1" source="n9ziA0_ppnjwsiYsguU1-136" target="n9ziA0_ppnjwsiYsguU1-147">
          <mxGeometry x="0.007" y="10" relative="1" as="geometry">
            <mxPoint as="offset" />
            <mxPoint x="1470" y="289" as="targetPoint" />
          </mxGeometry>
        </mxCell>
        <mxCell id="n9ziA0_ppnjwsiYsguU1-135" value="&lt;font style=&quot;font-size: 17px;&quot;&gt;是&lt;/font&gt;" style="edgeStyle=orthogonalEdgeStyle;rounded=0;orthogonalLoop=1;jettySize=auto;html=1;exitX=0.5;exitY=1;exitDx=0;exitDy=0;entryX=0.5;entryY=0;entryDx=0;entryDy=0;labelPosition=right;verticalLabelPosition=middle;align=left;verticalAlign=middle;endArrow=block;endFill=0;fontStyle=1" edge="1" parent="WIyWlLk6GJQsqaUBKTNV-1" source="n9ziA0_ppnjwsiYsguU1-136" target="n9ziA0_ppnjwsiYsguU1-141">
          <mxGeometry x="0.007" relative="1" as="geometry">
            <mxPoint as="offset" />
            <mxPoint x="1330" y="384" as="targetPoint" />
          </mxGeometry>
        </mxCell>
        <mxCell id="n9ziA0_ppnjwsiYsguU1-136" value="判断&lt;div&gt;信息是否合法&lt;/div&gt;" style="rhombus;whiteSpace=wrap;html=1;shadow=0;fontFamily=Helvetica;fontSize=17;align=center;strokeWidth=1;spacing=6;spacingTop=-4;fontStyle=1" vertex="1" parent="WIyWlLk6GJQsqaUBKTNV-1">
          <mxGeometry x="1280" y="249" width="100" height="80" as="geometry" />
        </mxCell>
        <mxCell id="n9ziA0_ppnjwsiYsguU1-140" style="edgeStyle=orthogonalEdgeStyle;rounded=0;orthogonalLoop=1;jettySize=auto;html=1;exitX=0.5;exitY=1;exitDx=0;exitDy=0;entryX=0.5;entryY=0;entryDx=0;entryDy=0;endArrow=block;endFill=0;fontStyle=1" edge="1" parent="WIyWlLk6GJQsqaUBKTNV-1" source="n9ziA0_ppnjwsiYsguU1-141" target="n9ziA0_ppnjwsiYsguU1-148">
          <mxGeometry relative="1" as="geometry">
            <mxPoint x="1330" y="545" as="targetPoint" />
          </mxGeometry>
        </mxCell>
        <mxCell id="n9ziA0_ppnjwsiYsguU1-141" value="更新个人信息" style="rounded=0;whiteSpace=wrap;html=1;fontSize=17;glass=0;strokeWidth=1;shadow=0;fontStyle=1" vertex="1" parent="WIyWlLk6GJQsqaUBKTNV-1">
          <mxGeometry x="1270" y="365" width="120" height="40" as="geometry" />
        </mxCell>
        <mxCell id="n9ziA0_ppnjwsiYsguU1-142" value="" style="rounded=0;html=1;jettySize=auto;orthogonalLoop=1;fontSize=17;endArrow=block;endFill=0;endSize=8;strokeWidth=1;shadow=0;labelBackgroundColor=none;edgeStyle=orthogonalEdgeStyle;fontStyle=1" edge="1" parent="WIyWlLk6GJQsqaUBKTNV-1" source="n9ziA0_ppnjwsiYsguU1-143">
          <mxGeometry relative="1" as="geometry">
            <mxPoint x="1330" y="179" as="targetPoint" />
          </mxGeometry>
        </mxCell>
        <mxCell id="n9ziA0_ppnjwsiYsguU1-143" value="修改个人信息" style="rounded=0;whiteSpace=wrap;html=1;fontSize=17;glass=0;strokeWidth=1;shadow=0;fontStyle=1" vertex="1" parent="WIyWlLk6GJQsqaUBKTNV-1">
          <mxGeometry x="1270" y="109" width="120" height="40" as="geometry" />
        </mxCell>
        <mxCell id="n9ziA0_ppnjwsiYsguU1-144" value="" style="rounded=0;html=1;jettySize=auto;orthogonalLoop=1;fontSize=17;endArrow=block;endFill=0;endSize=8;strokeWidth=1;shadow=0;labelBackgroundColor=none;edgeStyle=orthogonalEdgeStyle;fontStyle=1" edge="1" parent="WIyWlLk6GJQsqaUBKTNV-1" source="n9ziA0_ppnjwsiYsguU1-145">
          <mxGeometry relative="1" as="geometry">
            <mxPoint x="1330" y="109" as="targetPoint" />
          </mxGeometry>
        </mxCell>
        <mxCell id="n9ziA0_ppnjwsiYsguU1-145" value="进入&lt;div&gt;信息管理页面&lt;/div&gt;" style="rounded=0;whiteSpace=wrap;html=1;fontSize=17;glass=0;strokeWidth=1;shadow=0;fontStyle=1" vertex="1" parent="WIyWlLk6GJQsqaUBKTNV-1">
          <mxGeometry x="1270" y="49" width="120" height="40" as="geometry" />
        </mxCell>
        <mxCell id="n9ziA0_ppnjwsiYsguU1-146" style="edgeStyle=orthogonalEdgeStyle;rounded=0;orthogonalLoop=1;jettySize=auto;html=1;exitX=0.5;exitY=0;exitDx=0;exitDy=0;entryX=1;entryY=0.5;entryDx=0;entryDy=0;endArrow=block;endFill=0;fontStyle=1" edge="1" parent="WIyWlLk6GJQsqaUBKTNV-1" source="n9ziA0_ppnjwsiYsguU1-147" target="n9ziA0_ppnjwsiYsguU1-145">
          <mxGeometry relative="1" as="geometry" />
        </mxCell>
        <mxCell id="n9ziA0_ppnjwsiYsguU1-147" value="&lt;font style=&quot;font-size: 17px;&quot;&gt;提示&lt;/font&gt;&lt;div&gt;&lt;span style=&quot;font-size: 17px;&quot;&gt;信息不合法&lt;/span&gt;&lt;/div&gt;" style="shape=parallelogram;perimeter=parallelogramPerimeter;whiteSpace=wrap;html=1;fixedSize=1;fontStyle=1" vertex="1" parent="WIyWlLk6GJQsqaUBKTNV-1">
          <mxGeometry x="1480" y="259" width="120" height="60" as="geometry" />
        </mxCell>
        <mxCell id="n9ziA0_ppnjwsiYsguU1-148" value="结束" style="rounded=1;whiteSpace=wrap;html=1;fontSize=17;glass=0;strokeWidth=1;shadow=0;perimeter=rectanglePerimeter;arcSize=50;fontStyle=1" vertex="1" parent="WIyWlLk6GJQsqaUBKTNV-1">
          <mxGeometry x="1270" y="435" width="120" height="40" as="geometry" />
        </mxCell>
        <mxCell id="n9ziA0_ppnjwsiYsguU1-166" value="" style="rounded=0;html=1;jettySize=auto;orthogonalLoop=1;fontSize=17;endArrow=block;endFill=0;endSize=8;strokeWidth=1;shadow=0;labelBackgroundColor=none;edgeStyle=orthogonalEdgeStyle;fontStyle=1" edge="1" parent="WIyWlLk6GJQsqaUBKTNV-1" source="n9ziA0_ppnjwsiYsguU1-167" target="n9ziA0_ppnjwsiYsguU1-170">
          <mxGeometry relative="1" as="geometry" />
        </mxCell>
        <mxCell id="n9ziA0_ppnjwsiYsguU1-167" value="选择时间范围" style="rounded=0;whiteSpace=wrap;html=1;fontSize=17;glass=0;strokeWidth=1;shadow=0;fontStyle=1" vertex="1" parent="WIyWlLk6GJQsqaUBKTNV-1">
          <mxGeometry x="1639" y="179" width="120" height="40" as="geometry" />
        </mxCell>
        <mxCell id="n9ziA0_ppnjwsiYsguU1-168" value="否" style="edgeStyle=orthogonalEdgeStyle;rounded=0;html=1;jettySize=auto;orthogonalLoop=1;fontSize=17;endArrow=block;endFill=0;endSize=8;strokeWidth=1;shadow=0;labelBackgroundColor=none;entryX=0;entryY=0.5;entryDx=0;entryDy=0;fontStyle=1" edge="1" parent="WIyWlLk6GJQsqaUBKTNV-1" source="n9ziA0_ppnjwsiYsguU1-170" target="n9ziA0_ppnjwsiYsguU1-178">
          <mxGeometry x="0.007" y="10" relative="1" as="geometry">
            <mxPoint as="offset" />
            <mxPoint x="1839" y="289" as="targetPoint" />
          </mxGeometry>
        </mxCell>
        <mxCell id="n9ziA0_ppnjwsiYsguU1-169" value="&lt;font style=&quot;font-size: 17px;&quot;&gt;是&lt;/font&gt;" style="edgeStyle=orthogonalEdgeStyle;rounded=0;orthogonalLoop=1;jettySize=auto;html=1;exitX=0.5;exitY=1;exitDx=0;exitDy=0;entryX=0.5;entryY=0;entryDx=0;entryDy=0;labelPosition=right;verticalLabelPosition=middle;align=left;verticalAlign=middle;endArrow=block;endFill=0;fontStyle=1" edge="1" parent="WIyWlLk6GJQsqaUBKTNV-1" source="n9ziA0_ppnjwsiYsguU1-170">
          <mxGeometry x="0.007" relative="1" as="geometry">
            <mxPoint as="offset" />
            <mxPoint x="1699" y="365" as="targetPoint" />
          </mxGeometry>
        </mxCell>
        <mxCell id="n9ziA0_ppnjwsiYsguU1-170" value="判断&lt;div&gt;时间范围&lt;/div&gt;&lt;div&gt;合法性&lt;/div&gt;" style="rhombus;whiteSpace=wrap;html=1;shadow=0;fontFamily=Helvetica;fontSize=17;align=center;strokeWidth=1;spacing=6;spacingTop=-4;fontStyle=1" vertex="1" parent="WIyWlLk6GJQsqaUBKTNV-1">
          <mxGeometry x="1649" y="249" width="100" height="80" as="geometry" />
        </mxCell>
        <mxCell id="n9ziA0_ppnjwsiYsguU1-173" value="" style="rounded=0;html=1;jettySize=auto;orthogonalLoop=1;fontSize=17;endArrow=block;endFill=0;endSize=8;strokeWidth=1;shadow=0;labelBackgroundColor=none;edgeStyle=orthogonalEdgeStyle;fontStyle=1" edge="1" parent="WIyWlLk6GJQsqaUBKTNV-1" source="n9ziA0_ppnjwsiYsguU1-174">
          <mxGeometry relative="1" as="geometry">
            <mxPoint x="1699" y="179" as="targetPoint" />
          </mxGeometry>
        </mxCell>
        <mxCell id="n9ziA0_ppnjwsiYsguU1-174" value="选择类型&lt;div&gt;&lt;font style=&quot;font-size: 16px;&quot;&gt;(消费/充值/ALL)&lt;/font&gt;&lt;/div&gt;" style="rounded=0;whiteSpace=wrap;html=1;fontSize=17;glass=0;strokeWidth=1;shadow=0;fontStyle=1" vertex="1" parent="WIyWlLk6GJQsqaUBKTNV-1">
          <mxGeometry x="1639" y="109" width="120" height="40" as="geometry" />
        </mxCell>
        <mxCell id="n9ziA0_ppnjwsiYsguU1-175" value="" style="rounded=0;html=1;jettySize=auto;orthogonalLoop=1;fontSize=17;endArrow=block;endFill=0;endSize=8;strokeWidth=1;shadow=0;labelBackgroundColor=none;edgeStyle=orthogonalEdgeStyle;fontStyle=1" edge="1" parent="WIyWlLk6GJQsqaUBKTNV-1" source="n9ziA0_ppnjwsiYsguU1-176">
          <mxGeometry relative="1" as="geometry">
            <mxPoint x="1699" y="109" as="targetPoint" />
          </mxGeometry>
        </mxCell>
        <mxCell id="n9ziA0_ppnjwsiYsguU1-176" value="进入&lt;div&gt;流水查询页面&lt;/div&gt;" style="rounded=0;whiteSpace=wrap;html=1;fontSize=17;glass=0;strokeWidth=1;shadow=0;fontStyle=1" vertex="1" parent="WIyWlLk6GJQsqaUBKTNV-1">
          <mxGeometry x="1639" y="49" width="120" height="40" as="geometry" />
        </mxCell>
        <mxCell id="n9ziA0_ppnjwsiYsguU1-177" style="edgeStyle=orthogonalEdgeStyle;rounded=0;orthogonalLoop=1;jettySize=auto;html=1;exitX=0.5;exitY=0;exitDx=0;exitDy=0;entryX=1;entryY=0.5;entryDx=0;entryDy=0;endArrow=block;endFill=0;fontStyle=1" edge="1" parent="WIyWlLk6GJQsqaUBKTNV-1" source="n9ziA0_ppnjwsiYsguU1-178" target="n9ziA0_ppnjwsiYsguU1-176">
          <mxGeometry relative="1" as="geometry" />
        </mxCell>
        <mxCell id="n9ziA0_ppnjwsiYsguU1-178" value="&lt;font style=&quot;font-size: 17px;&quot;&gt;提示&lt;/font&gt;&lt;div&gt;&lt;span style=&quot;font-size: 17px;&quot;&gt;时间不合法&lt;/span&gt;&lt;/div&gt;" style="shape=parallelogram;perimeter=parallelogramPerimeter;whiteSpace=wrap;html=1;fixedSize=1;fontStyle=1" vertex="1" parent="WIyWlLk6GJQsqaUBKTNV-1">
          <mxGeometry x="1849" y="259" width="120" height="60" as="geometry" />
        </mxCell>
        <mxCell id="n9ziA0_ppnjwsiYsguU1-179" value="结束" style="rounded=1;whiteSpace=wrap;html=1;fontSize=17;glass=0;strokeWidth=1;shadow=0;perimeter=rectanglePerimeter;arcSize=50;fontStyle=1" vertex="1" parent="WIyWlLk6GJQsqaUBKTNV-1">
          <mxGeometry x="1638" y="586" width="120" height="40" as="geometry" />
        </mxCell>
        <mxCell id="n9ziA0_ppnjwsiYsguU1-199" style="edgeStyle=orthogonalEdgeStyle;rounded=0;orthogonalLoop=1;jettySize=auto;html=1;exitX=0;exitY=0.5;exitDx=0;exitDy=0;entryX=0.5;entryY=0;entryDx=0;entryDy=0;endArrow=block;endFill=0;fontStyle=1" edge="1" parent="WIyWlLk6GJQsqaUBKTNV-1" source="n9ziA0_ppnjwsiYsguU1-194" target="n9ziA0_ppnjwsiYsguU1-197">
          <mxGeometry relative="1" as="geometry" />
        </mxCell>
        <mxCell id="n9ziA0_ppnjwsiYsguU1-200" value="&lt;font style=&quot;font-size: 17px;&quot;&gt;表格形式&lt;/font&gt;" style="edgeLabel;html=1;align=center;verticalAlign=middle;resizable=0;points=[];fontStyle=1" vertex="1" connectable="0" parent="n9ziA0_ppnjwsiYsguU1-199">
          <mxGeometry x="-0.3628" y="-1" relative="1" as="geometry">
            <mxPoint x="5" y="-10" as="offset" />
          </mxGeometry>
        </mxCell>
        <mxCell id="n9ziA0_ppnjwsiYsguU1-201" value="&lt;font style=&quot;font-size: 17px;&quot;&gt;统计图形式&lt;/font&gt;" style="edgeStyle=orthogonalEdgeStyle;rounded=0;orthogonalLoop=1;jettySize=auto;html=1;exitX=1;exitY=0.5;exitDx=0;exitDy=0;entryX=0.5;entryY=0;entryDx=0;entryDy=0;endArrow=block;endFill=0;fontStyle=1" edge="1" parent="WIyWlLk6GJQsqaUBKTNV-1" source="n9ziA0_ppnjwsiYsguU1-194" target="n9ziA0_ppnjwsiYsguU1-198">
          <mxGeometry x="-0.3625" y="15" relative="1" as="geometry">
            <mxPoint as="offset" />
          </mxGeometry>
        </mxCell>
        <mxCell id="n9ziA0_ppnjwsiYsguU1-194" value="判断&lt;div&gt;展示形式&lt;/div&gt;" style="rhombus;whiteSpace=wrap;html=1;shadow=0;fontFamily=Helvetica;fontSize=17;align=center;strokeWidth=1;spacing=6;spacingTop=-4;fontStyle=1" vertex="1" parent="WIyWlLk6GJQsqaUBKTNV-1">
          <mxGeometry x="1649" y="435" width="100" height="80" as="geometry" />
        </mxCell>
        <mxCell id="n9ziA0_ppnjwsiYsguU1-196" style="edgeStyle=orthogonalEdgeStyle;rounded=0;orthogonalLoop=1;jettySize=auto;html=1;exitX=0.5;exitY=1;exitDx=0;exitDy=0;entryX=0.5;entryY=0;entryDx=0;entryDy=0;fontStyle=1;endArrow=block;endFill=0;" edge="1" parent="WIyWlLk6GJQsqaUBKTNV-1" source="n9ziA0_ppnjwsiYsguU1-195" target="n9ziA0_ppnjwsiYsguU1-194">
          <mxGeometry relative="1" as="geometry" />
        </mxCell>
        <mxCell id="n9ziA0_ppnjwsiYsguU1-195" value="选择展示形式" style="rounded=0;whiteSpace=wrap;html=1;fontSize=17;glass=0;strokeWidth=1;shadow=0;fontStyle=1" vertex="1" parent="WIyWlLk6GJQsqaUBKTNV-1">
          <mxGeometry x="1639" y="365" width="120" height="40" as="geometry" />
        </mxCell>
        <mxCell id="n9ziA0_ppnjwsiYsguU1-202" style="edgeStyle=orthogonalEdgeStyle;rounded=0;orthogonalLoop=1;jettySize=auto;html=1;exitX=0.5;exitY=1;exitDx=0;exitDy=0;entryX=0.5;entryY=0;entryDx=0;entryDy=0;endArrow=block;endFill=0;fontStyle=1" edge="1" parent="WIyWlLk6GJQsqaUBKTNV-1" source="n9ziA0_ppnjwsiYsguU1-197" target="n9ziA0_ppnjwsiYsguU1-179">
          <mxGeometry relative="1" as="geometry" />
        </mxCell>
        <mxCell id="n9ziA0_ppnjwsiYsguU1-197" value="生成表格" style="rounded=0;whiteSpace=wrap;html=1;fontSize=17;glass=0;strokeWidth=1;shadow=0;fontStyle=1" vertex="1" parent="WIyWlLk6GJQsqaUBKTNV-1">
          <mxGeometry x="1509" y="504" width="120" height="40" as="geometry" />
        </mxCell>
        <mxCell id="n9ziA0_ppnjwsiYsguU1-203" style="edgeStyle=orthogonalEdgeStyle;rounded=0;orthogonalLoop=1;jettySize=auto;html=1;exitX=0.5;exitY=1;exitDx=0;exitDy=0;entryX=0.5;entryY=0;entryDx=0;entryDy=0;endArrow=block;endFill=0;fontStyle=1" edge="1" parent="WIyWlLk6GJQsqaUBKTNV-1" source="n9ziA0_ppnjwsiYsguU1-198" target="n9ziA0_ppnjwsiYsguU1-179">
          <mxGeometry relative="1" as="geometry" />
        </mxCell>
        <mxCell id="n9ziA0_ppnjwsiYsguU1-198" value="生成统计图" style="rounded=0;whiteSpace=wrap;html=1;fontSize=17;glass=0;strokeWidth=1;shadow=0;fontStyle=1" vertex="1" parent="WIyWlLk6GJQsqaUBKTNV-1">
          <mxGeometry x="1769" y="504" width="120" height="40" as="geometry" />
        </mxCell>
        <mxCell id="n9ziA0_ppnjwsiYsguU1-216" value="" style="rounded=0;html=1;jettySize=auto;orthogonalLoop=1;fontSize=17;endArrow=block;endFill=0;endSize=8;strokeWidth=1;shadow=0;labelBackgroundColor=none;edgeStyle=orthogonalEdgeStyle;exitX=0.5;exitY=1;exitDx=0;exitDy=0;fontStyle=1" edge="1" parent="WIyWlLk6GJQsqaUBKTNV-1" source="n9ziA0_ppnjwsiYsguU1-217">
          <mxGeometry relative="1" as="geometry">
            <mxPoint x="542.5" y="1213" as="targetPoint" />
            <mxPoint x="542.5" y="1123" as="sourcePoint" />
          </mxGeometry>
        </mxCell>
        <mxCell id="n9ziA0_ppnjwsiYsguU1-217" value="开始" style="rounded=1;whiteSpace=wrap;html=1;fontSize=17;glass=0;strokeWidth=1;shadow=0;perimeter=rectanglePerimeter;arcSize=50;fontStyle=1" vertex="1" parent="WIyWlLk6GJQsqaUBKTNV-1">
          <mxGeometry x="483" y="1133" width="120" height="40" as="geometry" />
        </mxCell>
        <mxCell id="n9ziA0_ppnjwsiYsguU1-246" value="未登录" style="edgeStyle=orthogonalEdgeStyle;rounded=0;html=1;jettySize=auto;orthogonalLoop=1;fontSize=17;endArrow=block;endFill=0;endSize=8;strokeWidth=1;shadow=0;labelBackgroundColor=none;entryX=0;entryY=0.5;entryDx=0;entryDy=0;fontStyle=1" edge="1" parent="WIyWlLk6GJQsqaUBKTNV-1" source="n9ziA0_ppnjwsiYsguU1-248">
          <mxGeometry x="-0.0045" y="-11" relative="1" as="geometry">
            <mxPoint y="-23" as="offset" />
            <mxPoint x="703" y="1253" as="targetPoint" />
          </mxGeometry>
        </mxCell>
        <mxCell id="n9ziA0_ppnjwsiYsguU1-247" value="&lt;font style=&quot;font-size: 17px;&quot;&gt;已登录&lt;/font&gt;" style="edgeStyle=orthogonalEdgeStyle;rounded=0;orthogonalLoop=1;jettySize=auto;html=1;exitX=0.5;exitY=1;exitDx=0;exitDy=0;entryX=0.5;entryY=0;entryDx=0;entryDy=0;labelPosition=right;verticalLabelPosition=middle;align=left;verticalAlign=middle;endArrow=block;endFill=0;fontStyle=1" edge="1" parent="WIyWlLk6GJQsqaUBKTNV-1" source="n9ziA0_ppnjwsiYsguU1-248">
          <mxGeometry x="0.0098" relative="1" as="geometry">
            <mxPoint x="543" y="1343" as="targetPoint" />
            <mxPoint as="offset" />
          </mxGeometry>
        </mxCell>
        <mxCell id="n9ziA0_ppnjwsiYsguU1-248" value="判断&lt;div&gt;登录状态&lt;/div&gt;" style="rhombus;whiteSpace=wrap;html=1;shadow=0;fontFamily=Helvetica;fontSize=17;align=center;strokeWidth=1;spacing=6;spacingTop=-4;fontStyle=1" vertex="1" parent="WIyWlLk6GJQsqaUBKTNV-1">
          <mxGeometry x="493" y="1213" width="100" height="80" as="geometry" />
        </mxCell>
        <mxCell id="n9ziA0_ppnjwsiYsguU1-249" style="edgeStyle=orthogonalEdgeStyle;rounded=0;orthogonalLoop=1;jettySize=auto;html=1;exitX=1;exitY=0.5;exitDx=0;exitDy=0;entryX=0;entryY=0.5;entryDx=0;entryDy=0;endArrow=block;endFill=0;fontStyle=1" edge="1" parent="WIyWlLk6GJQsqaUBKTNV-1" source="n9ziA0_ppnjwsiYsguU1-250" target="n9ziA0_ppnjwsiYsguU1-258">
          <mxGeometry relative="1" as="geometry" />
        </mxCell>
        <mxCell id="n9ziA0_ppnjwsiYsguU1-250" value="进入登录页面" style="rounded=0;whiteSpace=wrap;html=1;fontSize=17;glass=0;strokeWidth=1;shadow=0;fontStyle=1" vertex="1" parent="WIyWlLk6GJQsqaUBKTNV-1">
          <mxGeometry x="703" y="1233" width="120" height="40" as="geometry" />
        </mxCell>
        <mxCell id="n9ziA0_ppnjwsiYsguU1-251" value="" style="rounded=0;html=1;jettySize=auto;orthogonalLoop=1;fontSize=17;endArrow=block;endFill=0;endSize=8;strokeWidth=1;shadow=0;labelBackgroundColor=none;edgeStyle=orthogonalEdgeStyle;entryX=0.5;entryY=0;entryDx=0;entryDy=0;fontStyle=1" edge="1" parent="WIyWlLk6GJQsqaUBKTNV-1" source="n9ziA0_ppnjwsiYsguU1-255" target="n9ziA0_ppnjwsiYsguU1-37">
          <mxGeometry relative="1" as="geometry">
            <mxPoint x="223" y="1532" as="targetPoint" />
            <Array as="points">
              <mxPoint x="543" y="1440" />
              <mxPoint x="437" y="1440" />
            </Array>
          </mxGeometry>
        </mxCell>
        <mxCell id="n9ziA0_ppnjwsiYsguU1-254" style="edgeStyle=orthogonalEdgeStyle;rounded=0;orthogonalLoop=1;jettySize=auto;html=1;exitX=0.5;exitY=1;exitDx=0;exitDy=0;entryX=0.5;entryY=0;entryDx=0;entryDy=0;endArrow=block;endFill=0;fontStyle=1" edge="1" parent="WIyWlLk6GJQsqaUBKTNV-1" source="n9ziA0_ppnjwsiYsguU1-255" target="n9ziA0_ppnjwsiYsguU1-294">
          <mxGeometry relative="1" as="geometry">
            <Array as="points">
              <mxPoint x="543" y="1443" />
              <mxPoint x="844" y="1443" />
            </Array>
          </mxGeometry>
        </mxCell>
        <mxCell id="n9ziA0_ppnjwsiYsguU1-320" style="edgeStyle=orthogonalEdgeStyle;rounded=0;orthogonalLoop=1;jettySize=auto;html=1;exitX=0.5;exitY=1;exitDx=0;exitDy=0;entryX=0.5;entryY=0;entryDx=0;entryDy=0;" edge="1" parent="WIyWlLk6GJQsqaUBKTNV-1" source="n9ziA0_ppnjwsiYsguU1-255" target="n9ziA0_ppnjwsiYsguU1-306">
          <mxGeometry relative="1" as="geometry">
            <Array as="points">
              <mxPoint x="543" y="1442" />
              <mxPoint x="1213" y="1442" />
            </Array>
          </mxGeometry>
        </mxCell>
        <mxCell id="n9ziA0_ppnjwsiYsguU1-255" value="进入&lt;div&gt;功能选择页面&lt;/div&gt;" style="rounded=0;whiteSpace=wrap;html=1;fontSize=17;glass=0;strokeWidth=1;shadow=0;fontStyle=1" vertex="1" parent="WIyWlLk6GJQsqaUBKTNV-1">
          <mxGeometry x="483" y="1343" width="120" height="40" as="geometry" />
        </mxCell>
        <mxCell id="n9ziA0_ppnjwsiYsguU1-256" style="edgeStyle=orthogonalEdgeStyle;rounded=0;orthogonalLoop=1;jettySize=auto;html=1;exitX=0.5;exitY=0;exitDx=0;exitDy=0;entryX=0.5;entryY=1;entryDx=0;entryDy=0;endArrow=block;endFill=0;fontStyle=1" edge="1" parent="WIyWlLk6GJQsqaUBKTNV-1" source="n9ziA0_ppnjwsiYsguU1-258" target="n9ziA0_ppnjwsiYsguU1-259">
          <mxGeometry relative="1" as="geometry" />
        </mxCell>
        <mxCell id="n9ziA0_ppnjwsiYsguU1-257" value="&lt;font style=&quot;font-size: 17px;&quot;&gt;有&lt;/font&gt;" style="edgeStyle=orthogonalEdgeStyle;rounded=0;orthogonalLoop=1;jettySize=auto;html=1;exitX=1;exitY=0.5;exitDx=0;exitDy=0;entryX=0;entryY=0.5;entryDx=0;entryDy=0;endArrow=block;endFill=0;fontStyle=1" edge="1" parent="WIyWlLk6GJQsqaUBKTNV-1" source="n9ziA0_ppnjwsiYsguU1-258" target="n9ziA0_ppnjwsiYsguU1-260">
          <mxGeometry y="10" relative="1" as="geometry">
            <mxPoint as="offset" />
          </mxGeometry>
        </mxCell>
        <mxCell id="n9ziA0_ppnjwsiYsguU1-258" value="有无账号" style="rhombus;whiteSpace=wrap;html=1;shadow=0;fontFamily=Helvetica;fontSize=17;align=center;strokeWidth=1;spacing=6;spacingTop=-4;fontStyle=1" vertex="1" parent="WIyWlLk6GJQsqaUBKTNV-1">
          <mxGeometry x="843" y="1213" width="100" height="80" as="geometry" />
        </mxCell>
        <mxCell id="n9ziA0_ppnjwsiYsguU1-259" value="注册账号" style="rounded=0;whiteSpace=wrap;html=1;fontSize=17;glass=0;strokeWidth=1;shadow=0;fontStyle=1" vertex="1" parent="WIyWlLk6GJQsqaUBKTNV-1">
          <mxGeometry x="833" y="1123" width="120" height="40" as="geometry" />
        </mxCell>
        <mxCell id="n9ziA0_ppnjwsiYsguU1-260" value="登录" style="rounded=0;whiteSpace=wrap;html=1;fontSize=17;glass=0;strokeWidth=1;shadow=0;fontStyle=1" vertex="1" parent="WIyWlLk6GJQsqaUBKTNV-1">
          <mxGeometry x="1003" y="1233" width="120" height="40" as="geometry" />
        </mxCell>
        <mxCell id="n9ziA0_ppnjwsiYsguU1-261" value="&lt;font style=&quot;font-size: 17px;&quot;&gt;否&lt;/font&gt;" style="edgeStyle=orthogonalEdgeStyle;rounded=0;orthogonalLoop=1;jettySize=auto;html=1;exitX=0.5;exitY=0;exitDx=0;exitDy=0;entryX=0.5;entryY=0;entryDx=0;entryDy=0;endArrow=block;endFill=0;fontStyle=1" edge="1" parent="WIyWlLk6GJQsqaUBKTNV-1" source="n9ziA0_ppnjwsiYsguU1-264" target="n9ziA0_ppnjwsiYsguU1-260">
          <mxGeometry x="0.0403" y="-10" relative="1" as="geometry">
            <mxPoint as="offset" />
          </mxGeometry>
        </mxCell>
        <mxCell id="n9ziA0_ppnjwsiYsguU1-262" value="&lt;font style=&quot;font-size: 17px;&quot;&gt;是&lt;/font&gt;" style="edgeStyle=orthogonalEdgeStyle;rounded=0;orthogonalLoop=1;jettySize=auto;html=1;exitX=0.5;exitY=1;exitDx=0;exitDy=0;entryX=1;entryY=0.5;entryDx=0;entryDy=0;endArrow=block;endFill=0;fontStyle=1" edge="1" parent="WIyWlLk6GJQsqaUBKTNV-1" source="n9ziA0_ppnjwsiYsguU1-264" target="n9ziA0_ppnjwsiYsguU1-255">
          <mxGeometry x="-0.9474" y="-10" relative="1" as="geometry">
            <mxPoint as="offset" />
          </mxGeometry>
        </mxCell>
        <mxCell id="n9ziA0_ppnjwsiYsguU1-263" value="" style="edgeStyle=orthogonalEdgeStyle;rounded=0;orthogonalLoop=1;jettySize=auto;html=1;exitX=1;exitY=0.5;exitDx=0;exitDy=0;endArrow=block;endFill=0;fontStyle=1" edge="1" parent="WIyWlLk6GJQsqaUBKTNV-1" source="n9ziA0_ppnjwsiYsguU1-260" target="n9ziA0_ppnjwsiYsguU1-264">
          <mxGeometry relative="1" as="geometry">
            <mxPoint x="1203" y="1252.9259259259259" as="targetPoint" />
            <mxPoint x="1123" y="1253" as="sourcePoint" />
          </mxGeometry>
        </mxCell>
        <mxCell id="n9ziA0_ppnjwsiYsguU1-264" value="登录成功？" style="rhombus;whiteSpace=wrap;html=1;shadow=0;fontFamily=Helvetica;fontSize=17;align=center;strokeWidth=1;spacing=6;spacingTop=-4;fontStyle=1" vertex="1" parent="WIyWlLk6GJQsqaUBKTNV-1">
          <mxGeometry x="1152" y="1213" width="100" height="80" as="geometry" />
        </mxCell>
        <mxCell id="n9ziA0_ppnjwsiYsguU1-284" value="" style="rounded=0;html=1;jettySize=auto;orthogonalLoop=1;fontSize=17;endArrow=block;endFill=0;endSize=8;strokeWidth=1;shadow=0;labelBackgroundColor=none;edgeStyle=orthogonalEdgeStyle;fontStyle=1" edge="1" parent="WIyWlLk6GJQsqaUBKTNV-1" source="n9ziA0_ppnjwsiYsguU1-285" target="n9ziA0_ppnjwsiYsguU1-288">
          <mxGeometry relative="1" as="geometry" />
        </mxCell>
        <mxCell id="n9ziA0_ppnjwsiYsguU1-285" value="提交" style="rounded=0;whiteSpace=wrap;html=1;fontSize=17;glass=0;strokeWidth=1;shadow=0;fontStyle=1" vertex="1" parent="WIyWlLk6GJQsqaUBKTNV-1">
          <mxGeometry x="784" y="1675" width="120" height="40" as="geometry" />
        </mxCell>
        <mxCell id="n9ziA0_ppnjwsiYsguU1-286" value="否" style="edgeStyle=orthogonalEdgeStyle;rounded=0;html=1;jettySize=auto;orthogonalLoop=1;fontSize=17;endArrow=block;endFill=0;endSize=8;strokeWidth=1;shadow=0;labelBackgroundColor=none;entryX=0;entryY=0.5;entryDx=0;entryDy=0;fontStyle=1" edge="1" parent="WIyWlLk6GJQsqaUBKTNV-1" source="n9ziA0_ppnjwsiYsguU1-288" target="n9ziA0_ppnjwsiYsguU1-296">
          <mxGeometry x="0.007" y="10" relative="1" as="geometry">
            <mxPoint as="offset" />
            <mxPoint x="984" y="1785" as="targetPoint" />
          </mxGeometry>
        </mxCell>
        <mxCell id="n9ziA0_ppnjwsiYsguU1-287" value="&lt;font style=&quot;font-size: 17px;&quot;&gt;是&lt;/font&gt;" style="edgeStyle=orthogonalEdgeStyle;rounded=0;orthogonalLoop=1;jettySize=auto;html=1;exitX=0.5;exitY=1;exitDx=0;exitDy=0;entryX=0.5;entryY=0;entryDx=0;entryDy=0;labelPosition=right;verticalLabelPosition=middle;align=left;verticalAlign=middle;endArrow=block;endFill=0;fontStyle=1" edge="1" parent="WIyWlLk6GJQsqaUBKTNV-1" source="n9ziA0_ppnjwsiYsguU1-288" target="n9ziA0_ppnjwsiYsguU1-290">
          <mxGeometry x="0.007" relative="1" as="geometry">
            <mxPoint as="offset" />
            <mxPoint x="844" y="1880" as="targetPoint" />
          </mxGeometry>
        </mxCell>
        <mxCell id="n9ziA0_ppnjwsiYsguU1-288" value="判断&lt;div&gt;信息是否合法&lt;/div&gt;" style="rhombus;whiteSpace=wrap;html=1;shadow=0;fontFamily=Helvetica;fontSize=17;align=center;strokeWidth=1;spacing=6;spacingTop=-4;fontStyle=1" vertex="1" parent="WIyWlLk6GJQsqaUBKTNV-1">
          <mxGeometry x="794" y="1745" width="100" height="80" as="geometry" />
        </mxCell>
        <mxCell id="n9ziA0_ppnjwsiYsguU1-289" style="edgeStyle=orthogonalEdgeStyle;rounded=0;orthogonalLoop=1;jettySize=auto;html=1;exitX=0.5;exitY=1;exitDx=0;exitDy=0;entryX=0.5;entryY=0;entryDx=0;entryDy=0;endArrow=block;endFill=0;fontStyle=1" edge="1" parent="WIyWlLk6GJQsqaUBKTNV-1" source="n9ziA0_ppnjwsiYsguU1-290" target="n9ziA0_ppnjwsiYsguU1-297">
          <mxGeometry relative="1" as="geometry">
            <mxPoint x="844" y="2041" as="targetPoint" />
          </mxGeometry>
        </mxCell>
        <mxCell id="n9ziA0_ppnjwsiYsguU1-290" value="更新个人信息" style="rounded=0;whiteSpace=wrap;html=1;fontSize=17;glass=0;strokeWidth=1;shadow=0;fontStyle=1" vertex="1" parent="WIyWlLk6GJQsqaUBKTNV-1">
          <mxGeometry x="784" y="1861" width="120" height="40" as="geometry" />
        </mxCell>
        <mxCell id="n9ziA0_ppnjwsiYsguU1-291" value="" style="rounded=0;html=1;jettySize=auto;orthogonalLoop=1;fontSize=17;endArrow=block;endFill=0;endSize=8;strokeWidth=1;shadow=0;labelBackgroundColor=none;edgeStyle=orthogonalEdgeStyle;fontStyle=1" edge="1" parent="WIyWlLk6GJQsqaUBKTNV-1" source="n9ziA0_ppnjwsiYsguU1-292">
          <mxGeometry relative="1" as="geometry">
            <mxPoint x="844" y="1675" as="targetPoint" />
          </mxGeometry>
        </mxCell>
        <mxCell id="n9ziA0_ppnjwsiYsguU1-292" value="修改个人信息" style="rounded=0;whiteSpace=wrap;html=1;fontSize=17;glass=0;strokeWidth=1;shadow=0;fontStyle=1" vertex="1" parent="WIyWlLk6GJQsqaUBKTNV-1">
          <mxGeometry x="784" y="1605" width="120" height="40" as="geometry" />
        </mxCell>
        <mxCell id="n9ziA0_ppnjwsiYsguU1-293" value="" style="rounded=0;html=1;jettySize=auto;orthogonalLoop=1;fontSize=17;endArrow=block;endFill=0;endSize=8;strokeWidth=1;shadow=0;labelBackgroundColor=none;edgeStyle=orthogonalEdgeStyle;fontStyle=1" edge="1" parent="WIyWlLk6GJQsqaUBKTNV-1" source="n9ziA0_ppnjwsiYsguU1-294">
          <mxGeometry relative="1" as="geometry">
            <mxPoint x="844" y="1605" as="targetPoint" />
          </mxGeometry>
        </mxCell>
        <mxCell id="n9ziA0_ppnjwsiYsguU1-294" value="进入&lt;div&gt;信息管理页面&lt;/div&gt;" style="rounded=0;whiteSpace=wrap;html=1;fontSize=17;glass=0;strokeWidth=1;shadow=0;fontStyle=1" vertex="1" parent="WIyWlLk6GJQsqaUBKTNV-1">
          <mxGeometry x="784" y="1545" width="120" height="40" as="geometry" />
        </mxCell>
        <mxCell id="n9ziA0_ppnjwsiYsguU1-295" style="edgeStyle=orthogonalEdgeStyle;rounded=0;orthogonalLoop=1;jettySize=auto;html=1;exitX=0.5;exitY=0;exitDx=0;exitDy=0;entryX=1;entryY=0.5;entryDx=0;entryDy=0;endArrow=block;endFill=0;fontStyle=1" edge="1" parent="WIyWlLk6GJQsqaUBKTNV-1" source="n9ziA0_ppnjwsiYsguU1-296" target="n9ziA0_ppnjwsiYsguU1-294">
          <mxGeometry relative="1" as="geometry" />
        </mxCell>
        <mxCell id="n9ziA0_ppnjwsiYsguU1-296" value="&lt;font style=&quot;font-size: 17px;&quot;&gt;提示&lt;/font&gt;&lt;div&gt;&lt;span style=&quot;font-size: 17px;&quot;&gt;信息不合法&lt;/span&gt;&lt;/div&gt;" style="shape=parallelogram;perimeter=parallelogramPerimeter;whiteSpace=wrap;html=1;fixedSize=1;fontStyle=1" vertex="1" parent="WIyWlLk6GJQsqaUBKTNV-1">
          <mxGeometry x="994" y="1755" width="120" height="60" as="geometry" />
        </mxCell>
        <mxCell id="n9ziA0_ppnjwsiYsguU1-297" value="结束" style="rounded=1;whiteSpace=wrap;html=1;fontSize=17;glass=0;strokeWidth=1;shadow=0;perimeter=rectanglePerimeter;arcSize=50;fontStyle=1" vertex="1" parent="WIyWlLk6GJQsqaUBKTNV-1">
          <mxGeometry x="784" y="1931" width="120" height="40" as="geometry" />
        </mxCell>
        <mxCell id="n9ziA0_ppnjwsiYsguU1-298" value="" style="rounded=0;html=1;jettySize=auto;orthogonalLoop=1;fontSize=17;endArrow=block;endFill=0;endSize=8;strokeWidth=1;shadow=0;labelBackgroundColor=none;edgeStyle=orthogonalEdgeStyle;fontStyle=1" edge="1" parent="WIyWlLk6GJQsqaUBKTNV-1" source="n9ziA0_ppnjwsiYsguU1-299" target="n9ziA0_ppnjwsiYsguU1-302">
          <mxGeometry relative="1" as="geometry" />
        </mxCell>
        <mxCell id="n9ziA0_ppnjwsiYsguU1-299" value="选择时间范围" style="rounded=0;whiteSpace=wrap;html=1;fontSize=17;glass=0;strokeWidth=1;shadow=0;fontStyle=1" vertex="1" parent="WIyWlLk6GJQsqaUBKTNV-1">
          <mxGeometry x="1153" y="1675" width="120" height="40" as="geometry" />
        </mxCell>
        <mxCell id="n9ziA0_ppnjwsiYsguU1-300" value="否" style="edgeStyle=orthogonalEdgeStyle;rounded=0;html=1;jettySize=auto;orthogonalLoop=1;fontSize=17;endArrow=block;endFill=0;endSize=8;strokeWidth=1;shadow=0;labelBackgroundColor=none;entryX=0;entryY=0.5;entryDx=0;entryDy=0;fontStyle=1" edge="1" parent="WIyWlLk6GJQsqaUBKTNV-1" source="n9ziA0_ppnjwsiYsguU1-302" target="n9ziA0_ppnjwsiYsguU1-308">
          <mxGeometry x="0.007" y="10" relative="1" as="geometry">
            <mxPoint as="offset" />
            <mxPoint x="1353" y="1785" as="targetPoint" />
          </mxGeometry>
        </mxCell>
        <mxCell id="n9ziA0_ppnjwsiYsguU1-301" value="&lt;font style=&quot;font-size: 17px;&quot;&gt;是&lt;/font&gt;" style="edgeStyle=orthogonalEdgeStyle;rounded=0;orthogonalLoop=1;jettySize=auto;html=1;exitX=0.5;exitY=1;exitDx=0;exitDy=0;entryX=0.5;entryY=0;entryDx=0;entryDy=0;labelPosition=right;verticalLabelPosition=middle;align=left;verticalAlign=middle;endArrow=block;endFill=0;fontStyle=1" edge="1" parent="WIyWlLk6GJQsqaUBKTNV-1" source="n9ziA0_ppnjwsiYsguU1-302">
          <mxGeometry x="0.007" relative="1" as="geometry">
            <mxPoint as="offset" />
            <mxPoint x="1213" y="1861" as="targetPoint" />
          </mxGeometry>
        </mxCell>
        <mxCell id="n9ziA0_ppnjwsiYsguU1-302" value="判断&lt;div&gt;时间范围&lt;/div&gt;&lt;div&gt;合法性&lt;/div&gt;" style="rhombus;whiteSpace=wrap;html=1;shadow=0;fontFamily=Helvetica;fontSize=17;align=center;strokeWidth=1;spacing=6;spacingTop=-4;fontStyle=1" vertex="1" parent="WIyWlLk6GJQsqaUBKTNV-1">
          <mxGeometry x="1163" y="1745" width="100" height="80" as="geometry" />
        </mxCell>
        <mxCell id="n9ziA0_ppnjwsiYsguU1-303" value="" style="rounded=0;html=1;jettySize=auto;orthogonalLoop=1;fontSize=17;endArrow=block;endFill=0;endSize=8;strokeWidth=1;shadow=0;labelBackgroundColor=none;edgeStyle=orthogonalEdgeStyle;fontStyle=1" edge="1" parent="WIyWlLk6GJQsqaUBKTNV-1" source="n9ziA0_ppnjwsiYsguU1-304">
          <mxGeometry relative="1" as="geometry">
            <mxPoint x="1213" y="1675" as="targetPoint" />
          </mxGeometry>
        </mxCell>
        <mxCell id="n9ziA0_ppnjwsiYsguU1-304" value="选择类型&lt;div&gt;&lt;font style=&quot;font-size: 16px;&quot;&gt;(已结算/未结算)&lt;/font&gt;&lt;/div&gt;" style="rounded=0;whiteSpace=wrap;html=1;fontSize=17;glass=0;strokeWidth=1;shadow=0;fontStyle=1" vertex="1" parent="WIyWlLk6GJQsqaUBKTNV-1">
          <mxGeometry x="1153" y="1605" width="120" height="40" as="geometry" />
        </mxCell>
        <mxCell id="n9ziA0_ppnjwsiYsguU1-305" value="" style="rounded=0;html=1;jettySize=auto;orthogonalLoop=1;fontSize=17;endArrow=block;endFill=0;endSize=8;strokeWidth=1;shadow=0;labelBackgroundColor=none;edgeStyle=orthogonalEdgeStyle;fontStyle=1" edge="1" parent="WIyWlLk6GJQsqaUBKTNV-1" source="n9ziA0_ppnjwsiYsguU1-306">
          <mxGeometry relative="1" as="geometry">
            <mxPoint x="1213" y="1605" as="targetPoint" />
          </mxGeometry>
        </mxCell>
        <mxCell id="n9ziA0_ppnjwsiYsguU1-306" value="进入&lt;div&gt;账单查询页面&lt;/div&gt;" style="rounded=0;whiteSpace=wrap;html=1;fontSize=17;glass=0;strokeWidth=1;shadow=0;fontStyle=1" vertex="1" parent="WIyWlLk6GJQsqaUBKTNV-1">
          <mxGeometry x="1153" y="1545" width="120" height="40" as="geometry" />
        </mxCell>
        <mxCell id="n9ziA0_ppnjwsiYsguU1-307" style="edgeStyle=orthogonalEdgeStyle;rounded=0;orthogonalLoop=1;jettySize=auto;html=1;exitX=0.5;exitY=0;exitDx=0;exitDy=0;entryX=1;entryY=0.5;entryDx=0;entryDy=0;endArrow=block;endFill=0;fontStyle=1" edge="1" parent="WIyWlLk6GJQsqaUBKTNV-1" source="n9ziA0_ppnjwsiYsguU1-308" target="n9ziA0_ppnjwsiYsguU1-306">
          <mxGeometry relative="1" as="geometry" />
        </mxCell>
        <mxCell id="n9ziA0_ppnjwsiYsguU1-308" value="&lt;font style=&quot;font-size: 17px;&quot;&gt;提示&lt;/font&gt;&lt;div&gt;&lt;span style=&quot;font-size: 17px;&quot;&gt;时间不合法&lt;/span&gt;&lt;/div&gt;" style="shape=parallelogram;perimeter=parallelogramPerimeter;whiteSpace=wrap;html=1;fixedSize=1;fontStyle=1" vertex="1" parent="WIyWlLk6GJQsqaUBKTNV-1">
          <mxGeometry x="1363" y="1755" width="120" height="60" as="geometry" />
        </mxCell>
        <mxCell id="n9ziA0_ppnjwsiYsguU1-309" value="结束" style="rounded=1;whiteSpace=wrap;html=1;fontSize=17;glass=0;strokeWidth=1;shadow=0;perimeter=rectanglePerimeter;arcSize=50;fontStyle=1" vertex="1" parent="WIyWlLk6GJQsqaUBKTNV-1">
          <mxGeometry x="1152" y="2082" width="120" height="40" as="geometry" />
        </mxCell>
        <mxCell id="n9ziA0_ppnjwsiYsguU1-310" style="edgeStyle=orthogonalEdgeStyle;rounded=0;orthogonalLoop=1;jettySize=auto;html=1;exitX=0;exitY=0.5;exitDx=0;exitDy=0;entryX=0.5;entryY=0;entryDx=0;entryDy=0;endArrow=block;endFill=0;fontStyle=1" edge="1" parent="WIyWlLk6GJQsqaUBKTNV-1" source="n9ziA0_ppnjwsiYsguU1-313" target="n9ziA0_ppnjwsiYsguU1-317">
          <mxGeometry relative="1" as="geometry" />
        </mxCell>
        <mxCell id="n9ziA0_ppnjwsiYsguU1-311" value="&lt;font style=&quot;font-size: 17px;&quot;&gt;表格形式&lt;/font&gt;" style="edgeLabel;html=1;align=center;verticalAlign=middle;resizable=0;points=[];fontStyle=1" vertex="1" connectable="0" parent="n9ziA0_ppnjwsiYsguU1-310">
          <mxGeometry x="-0.3628" y="-1" relative="1" as="geometry">
            <mxPoint x="5" y="-10" as="offset" />
          </mxGeometry>
        </mxCell>
        <mxCell id="n9ziA0_ppnjwsiYsguU1-312" value="&lt;font style=&quot;font-size: 17px;&quot;&gt;统计图形式&lt;/font&gt;" style="edgeStyle=orthogonalEdgeStyle;rounded=0;orthogonalLoop=1;jettySize=auto;html=1;exitX=1;exitY=0.5;exitDx=0;exitDy=0;entryX=0.5;entryY=0;entryDx=0;entryDy=0;endArrow=block;endFill=0;fontStyle=1" edge="1" parent="WIyWlLk6GJQsqaUBKTNV-1" source="n9ziA0_ppnjwsiYsguU1-313" target="n9ziA0_ppnjwsiYsguU1-319">
          <mxGeometry x="-0.3625" y="15" relative="1" as="geometry">
            <mxPoint as="offset" />
          </mxGeometry>
        </mxCell>
        <mxCell id="n9ziA0_ppnjwsiYsguU1-313" value="判断&lt;div&gt;展示形式&lt;/div&gt;" style="rhombus;whiteSpace=wrap;html=1;shadow=0;fontFamily=Helvetica;fontSize=17;align=center;strokeWidth=1;spacing=6;spacingTop=-4;fontStyle=1" vertex="1" parent="WIyWlLk6GJQsqaUBKTNV-1">
          <mxGeometry x="1163" y="1931" width="100" height="80" as="geometry" />
        </mxCell>
        <mxCell id="n9ziA0_ppnjwsiYsguU1-314" style="edgeStyle=orthogonalEdgeStyle;rounded=0;orthogonalLoop=1;jettySize=auto;html=1;exitX=0.5;exitY=1;exitDx=0;exitDy=0;entryX=0.5;entryY=0;entryDx=0;entryDy=0;fontStyle=1;endArrow=block;endFill=0;" edge="1" parent="WIyWlLk6GJQsqaUBKTNV-1" source="n9ziA0_ppnjwsiYsguU1-315" target="n9ziA0_ppnjwsiYsguU1-313">
          <mxGeometry relative="1" as="geometry" />
        </mxCell>
        <mxCell id="n9ziA0_ppnjwsiYsguU1-315" value="选择展示形式" style="rounded=0;whiteSpace=wrap;html=1;fontSize=17;glass=0;strokeWidth=1;shadow=0;fontStyle=1" vertex="1" parent="WIyWlLk6GJQsqaUBKTNV-1">
          <mxGeometry x="1153" y="1861" width="120" height="40" as="geometry" />
        </mxCell>
        <mxCell id="n9ziA0_ppnjwsiYsguU1-316" style="edgeStyle=orthogonalEdgeStyle;rounded=0;orthogonalLoop=1;jettySize=auto;html=1;exitX=0.5;exitY=1;exitDx=0;exitDy=0;entryX=0.5;entryY=0;entryDx=0;entryDy=0;endArrow=block;endFill=0;fontStyle=1" edge="1" parent="WIyWlLk6GJQsqaUBKTNV-1" source="n9ziA0_ppnjwsiYsguU1-317" target="n9ziA0_ppnjwsiYsguU1-309">
          <mxGeometry relative="1" as="geometry" />
        </mxCell>
        <mxCell id="n9ziA0_ppnjwsiYsguU1-317" value="生成表格" style="rounded=0;whiteSpace=wrap;html=1;fontSize=17;glass=0;strokeWidth=1;shadow=0;fontStyle=1" vertex="1" parent="WIyWlLk6GJQsqaUBKTNV-1">
          <mxGeometry x="1023" y="2000" width="120" height="40" as="geometry" />
        </mxCell>
        <mxCell id="n9ziA0_ppnjwsiYsguU1-318" style="edgeStyle=orthogonalEdgeStyle;rounded=0;orthogonalLoop=1;jettySize=auto;html=1;exitX=0.5;exitY=1;exitDx=0;exitDy=0;entryX=0.5;entryY=0;entryDx=0;entryDy=0;endArrow=block;endFill=0;fontStyle=1" edge="1" parent="WIyWlLk6GJQsqaUBKTNV-1" source="n9ziA0_ppnjwsiYsguU1-319" target="n9ziA0_ppnjwsiYsguU1-309">
          <mxGeometry relative="1" as="geometry" />
        </mxCell>
        <mxCell id="n9ziA0_ppnjwsiYsguU1-319" value="生成统计图" style="rounded=0;whiteSpace=wrap;html=1;fontSize=17;glass=0;strokeWidth=1;shadow=0;fontStyle=1" vertex="1" parent="WIyWlLk6GJQsqaUBKTNV-1">
          <mxGeometry x="1283" y="2000" width="120" height="40" as="geometry" />
        </mxCell>
        <mxCell id="n9ziA0_ppnjwsiYsguU1-321" value="" style="rounded=0;html=1;jettySize=auto;orthogonalLoop=1;fontSize=17;endArrow=block;endFill=0;endSize=8;strokeWidth=1;shadow=0;labelBackgroundColor=none;edgeStyle=orthogonalEdgeStyle;fontStyle=1;exitX=0.5;exitY=1;exitDx=0;exitDy=0;" edge="1" parent="WIyWlLk6GJQsqaUBKTNV-1" source="n9ziA0_ppnjwsiYsguU1-332" target="n9ziA0_ppnjwsiYsguU1-325">
          <mxGeometry relative="1" as="geometry">
            <mxPoint x="1717" y="1712" as="sourcePoint" />
          </mxGeometry>
        </mxCell>
        <mxCell id="n9ziA0_ppnjwsiYsguU1-323" value="非法" style="edgeStyle=orthogonalEdgeStyle;rounded=0;html=1;jettySize=auto;orthogonalLoop=1;fontSize=17;endArrow=block;endFill=0;endSize=8;strokeWidth=1;shadow=0;labelBackgroundColor=none;entryX=0;entryY=0.5;entryDx=0;entryDy=0;fontStyle=1" edge="1" parent="WIyWlLk6GJQsqaUBKTNV-1" source="n9ziA0_ppnjwsiYsguU1-325" target="n9ziA0_ppnjwsiYsguU1-338">
          <mxGeometry x="0.0043" y="10" relative="1" as="geometry">
            <mxPoint as="offset" />
            <mxPoint x="1857" y="1711.5" as="targetPoint" />
          </mxGeometry>
        </mxCell>
        <mxCell id="n9ziA0_ppnjwsiYsguU1-324" value="&lt;font style=&quot;font-size: 17px;&quot;&gt;合法&lt;/font&gt;" style="edgeStyle=orthogonalEdgeStyle;rounded=0;orthogonalLoop=1;jettySize=auto;html=1;exitX=0.5;exitY=1;exitDx=0;exitDy=0;entryX=0.5;entryY=0;entryDx=0;entryDy=0;labelPosition=right;verticalLabelPosition=middle;align=left;verticalAlign=middle;endArrow=block;endFill=0;fontStyle=1" edge="1" parent="WIyWlLk6GJQsqaUBKTNV-1" source="n9ziA0_ppnjwsiYsguU1-325" target="n9ziA0_ppnjwsiYsguU1-330">
          <mxGeometry x="0.0043" relative="1" as="geometry">
            <mxPoint as="offset" />
            <mxPoint x="1717" y="1806.5" as="targetPoint" />
          </mxGeometry>
        </mxCell>
        <mxCell id="n9ziA0_ppnjwsiYsguU1-325" value="信息&lt;div&gt;合法性？&lt;/div&gt;" style="rhombus;whiteSpace=wrap;html=1;shadow=0;fontFamily=Helvetica;fontSize=17;align=center;strokeWidth=1;spacing=6;spacingTop=-4;fontStyle=1" vertex="1" parent="WIyWlLk6GJQsqaUBKTNV-1">
          <mxGeometry x="1667" y="1671.5" width="100" height="80" as="geometry" />
        </mxCell>
        <mxCell id="n9ziA0_ppnjwsiYsguU1-330" value="更新用户信息" style="rounded=0;whiteSpace=wrap;html=1;fontSize=17;glass=0;strokeWidth=1;shadow=0;fontStyle=1" vertex="1" parent="WIyWlLk6GJQsqaUBKTNV-1">
          <mxGeometry x="1657" y="1790.5" width="120" height="40" as="geometry" />
        </mxCell>
        <mxCell id="n9ziA0_ppnjwsiYsguU1-332" value="增删改查&lt;div&gt;学生信息&lt;/div&gt;" style="rounded=0;whiteSpace=wrap;html=1;fontSize=17;glass=0;strokeWidth=1;shadow=0;fontStyle=1" vertex="1" parent="WIyWlLk6GJQsqaUBKTNV-1">
          <mxGeometry x="1657" y="1602" width="120" height="40" as="geometry" />
        </mxCell>
        <mxCell id="n9ziA0_ppnjwsiYsguU1-335" value="" style="rounded=0;html=1;jettySize=auto;orthogonalLoop=1;fontSize=17;endArrow=block;endFill=0;endSize=8;strokeWidth=1;shadow=0;labelBackgroundColor=none;edgeStyle=orthogonalEdgeStyle;fontStyle=1" edge="1" parent="WIyWlLk6GJQsqaUBKTNV-1" source="n9ziA0_ppnjwsiYsguU1-336">
          <mxGeometry relative="1" as="geometry">
            <mxPoint x="1717" y="1602" as="targetPoint" />
          </mxGeometry>
        </mxCell>
        <mxCell id="n9ziA0_ppnjwsiYsguU1-336" value="进入用户管理" style="rounded=0;whiteSpace=wrap;html=1;fontSize=17;glass=0;strokeWidth=1;shadow=0;fontStyle=1" vertex="1" parent="WIyWlLk6GJQsqaUBKTNV-1">
          <mxGeometry x="1657" y="1542" width="120" height="40" as="geometry" />
        </mxCell>
        <mxCell id="n9ziA0_ppnjwsiYsguU1-337" style="edgeStyle=orthogonalEdgeStyle;rounded=0;orthogonalLoop=1;jettySize=auto;html=1;exitX=0.5;exitY=0;exitDx=0;exitDy=0;entryX=1;entryY=0.5;entryDx=0;entryDy=0;fontStyle=1;endArrow=block;endFill=0;" edge="1" parent="WIyWlLk6GJQsqaUBKTNV-1" source="n9ziA0_ppnjwsiYsguU1-338" target="n9ziA0_ppnjwsiYsguU1-336">
          <mxGeometry relative="1" as="geometry" />
        </mxCell>
        <mxCell id="n9ziA0_ppnjwsiYsguU1-338" value="&lt;font style=&quot;font-size: 17px;&quot;&gt;提示&lt;/font&gt;&lt;div&gt;&lt;span style=&quot;font-size: 17px;&quot;&gt;修改信息非法&lt;/span&gt;&lt;/div&gt;" style="shape=parallelogram;perimeter=parallelogramPerimeter;whiteSpace=wrap;html=1;fixedSize=1;fontStyle=1" vertex="1" parent="WIyWlLk6GJQsqaUBKTNV-1">
          <mxGeometry x="1829" y="1681.5" width="120" height="60" as="geometry" />
        </mxCell>
        <mxCell id="n9ziA0_ppnjwsiYsguU1-339" value="结束" style="rounded=1;whiteSpace=wrap;html=1;fontSize=17;glass=0;strokeWidth=1;shadow=0;perimeter=rectanglePerimeter;arcSize=50;fontStyle=1" vertex="1" parent="WIyWlLk6GJQsqaUBKTNV-1">
          <mxGeometry x="1657" y="1858.5" width="120" height="40" as="geometry" />
        </mxCell>
        <mxCell id="n9ziA0_ppnjwsiYsguU1-342" value="" style="rounded=0;html=1;jettySize=auto;orthogonalLoop=1;fontSize=17;endArrow=block;endFill=0;endSize=8;strokeWidth=1;shadow=0;labelBackgroundColor=none;edgeStyle=orthogonalEdgeStyle;entryX=0.5;entryY=0;entryDx=0;entryDy=0;fontStyle=1;exitX=0.5;exitY=1;exitDx=0;exitDy=0;" edge="1" parent="WIyWlLk6GJQsqaUBKTNV-1" source="n9ziA0_ppnjwsiYsguU1-330" target="n9ziA0_ppnjwsiYsguU1-339">
          <mxGeometry relative="1" as="geometry">
            <mxPoint x="1867" y="1981.5" as="targetPoint" />
            <mxPoint x="1717" y="1971.5" as="sourcePoint" />
          </mxGeometry>
        </mxCell>
        <mxCell id="n9ziA0_ppnjwsiYsguU1-344" value="" style="rounded=0;html=1;jettySize=auto;orthogonalLoop=1;fontSize=17;endArrow=block;endFill=0;endSize=8;strokeWidth=1;shadow=0;labelBackgroundColor=none;edgeStyle=orthogonalEdgeStyle;exitX=0.5;exitY=1;exitDx=0;exitDy=0;fontStyle=1" edge="1" parent="WIyWlLk6GJQsqaUBKTNV-1" source="n9ziA0_ppnjwsiYsguU1-345">
          <mxGeometry relative="1" as="geometry">
            <mxPoint x="1822.5" y="1205" as="targetPoint" />
            <mxPoint x="1822.5" y="1115" as="sourcePoint" />
          </mxGeometry>
        </mxCell>
        <mxCell id="n9ziA0_ppnjwsiYsguU1-345" value="开始" style="rounded=1;whiteSpace=wrap;html=1;fontSize=17;glass=0;strokeWidth=1;shadow=0;perimeter=rectanglePerimeter;arcSize=50;fontStyle=1" vertex="1" parent="WIyWlLk6GJQsqaUBKTNV-1">
          <mxGeometry x="1763" y="1125" width="120" height="40" as="geometry" />
        </mxCell>
        <mxCell id="n9ziA0_ppnjwsiYsguU1-346" value="未登录" style="edgeStyle=orthogonalEdgeStyle;rounded=0;html=1;jettySize=auto;orthogonalLoop=1;fontSize=17;endArrow=block;endFill=0;endSize=8;strokeWidth=1;shadow=0;labelBackgroundColor=none;entryX=0;entryY=0.5;entryDx=0;entryDy=0;fontStyle=1" edge="1" parent="WIyWlLk6GJQsqaUBKTNV-1" source="n9ziA0_ppnjwsiYsguU1-348">
          <mxGeometry x="-0.0045" y="-11" relative="1" as="geometry">
            <mxPoint y="-23" as="offset" />
            <mxPoint x="1983" y="1245" as="targetPoint" />
          </mxGeometry>
        </mxCell>
        <mxCell id="n9ziA0_ppnjwsiYsguU1-347" value="&lt;font style=&quot;font-size: 17px;&quot;&gt;已登录&lt;/font&gt;" style="edgeStyle=orthogonalEdgeStyle;rounded=0;orthogonalLoop=1;jettySize=auto;html=1;exitX=0.5;exitY=1;exitDx=0;exitDy=0;entryX=0.5;entryY=0;entryDx=0;entryDy=0;labelPosition=right;verticalLabelPosition=middle;align=left;verticalAlign=middle;endArrow=block;endFill=0;fontStyle=1" edge="1" parent="WIyWlLk6GJQsqaUBKTNV-1" source="n9ziA0_ppnjwsiYsguU1-348">
          <mxGeometry x="0.0098" relative="1" as="geometry">
            <mxPoint x="1823" y="1335" as="targetPoint" />
            <mxPoint as="offset" />
          </mxGeometry>
        </mxCell>
        <mxCell id="n9ziA0_ppnjwsiYsguU1-348" value="判断&lt;div&gt;登录状态&lt;/div&gt;" style="rhombus;whiteSpace=wrap;html=1;shadow=0;fontFamily=Helvetica;fontSize=17;align=center;strokeWidth=1;spacing=6;spacingTop=-4;fontStyle=1" vertex="1" parent="WIyWlLk6GJQsqaUBKTNV-1">
          <mxGeometry x="1773" y="1205" width="100" height="80" as="geometry" />
        </mxCell>
        <mxCell id="n9ziA0_ppnjwsiYsguU1-349" style="edgeStyle=orthogonalEdgeStyle;rounded=0;orthogonalLoop=1;jettySize=auto;html=1;exitX=1;exitY=0.5;exitDx=0;exitDy=0;entryX=0;entryY=0.5;entryDx=0;entryDy=0;endArrow=block;endFill=0;fontStyle=1" edge="1" parent="WIyWlLk6GJQsqaUBKTNV-1" source="n9ziA0_ppnjwsiYsguU1-350" target="n9ziA0_ppnjwsiYsguU1-357">
          <mxGeometry relative="1" as="geometry" />
        </mxCell>
        <mxCell id="n9ziA0_ppnjwsiYsguU1-350" value="进入登录页面" style="rounded=0;whiteSpace=wrap;html=1;fontSize=17;glass=0;strokeWidth=1;shadow=0;fontStyle=1" vertex="1" parent="WIyWlLk6GJQsqaUBKTNV-1">
          <mxGeometry x="1983" y="1225" width="120" height="40" as="geometry" />
        </mxCell>
        <mxCell id="n9ziA0_ppnjwsiYsguU1-351" value="" style="rounded=0;html=1;jettySize=auto;orthogonalLoop=1;fontSize=17;endArrow=block;endFill=0;endSize=8;strokeWidth=1;shadow=0;labelBackgroundColor=none;edgeStyle=orthogonalEdgeStyle;entryX=0.5;entryY=0;entryDx=0;entryDy=0;fontStyle=1" edge="1" parent="WIyWlLk6GJQsqaUBKTNV-1" source="n9ziA0_ppnjwsiYsguU1-354" target="n9ziA0_ppnjwsiYsguU1-336">
          <mxGeometry relative="1" as="geometry">
            <mxPoint x="1503" y="1524" as="targetPoint" />
            <Array as="points">
              <mxPoint x="1823" y="1432" />
              <mxPoint x="1717" y="1432" />
            </Array>
          </mxGeometry>
        </mxCell>
        <mxCell id="n9ziA0_ppnjwsiYsguU1-352" style="edgeStyle=orthogonalEdgeStyle;rounded=0;orthogonalLoop=1;jettySize=auto;html=1;exitX=0.5;exitY=1;exitDx=0;exitDy=0;entryX=0.5;entryY=0;entryDx=0;entryDy=0;endArrow=block;endFill=0;fontStyle=1" edge="1" parent="WIyWlLk6GJQsqaUBKTNV-1" source="n9ziA0_ppnjwsiYsguU1-354" target="n9ziA0_ppnjwsiYsguU1-374">
          <mxGeometry relative="1" as="geometry">
            <Array as="points">
              <mxPoint x="1823" y="1435" />
              <mxPoint x="2124" y="1435" />
            </Array>
          </mxGeometry>
        </mxCell>
        <mxCell id="n9ziA0_ppnjwsiYsguU1-353" style="edgeStyle=orthogonalEdgeStyle;rounded=0;orthogonalLoop=1;jettySize=auto;html=1;exitX=0.5;exitY=1;exitDx=0;exitDy=0;entryX=0.5;entryY=0;entryDx=0;entryDy=0;" edge="1" parent="WIyWlLk6GJQsqaUBKTNV-1" source="n9ziA0_ppnjwsiYsguU1-354" target="n9ziA0_ppnjwsiYsguU1-386">
          <mxGeometry relative="1" as="geometry">
            <Array as="points">
              <mxPoint x="1823" y="1434" />
              <mxPoint x="2493" y="1434" />
            </Array>
          </mxGeometry>
        </mxCell>
        <mxCell id="n9ziA0_ppnjwsiYsguU1-354" value="进入&lt;div&gt;功能选择页面&lt;/div&gt;" style="rounded=0;whiteSpace=wrap;html=1;fontSize=17;glass=0;strokeWidth=1;shadow=0;fontStyle=1" vertex="1" parent="WIyWlLk6GJQsqaUBKTNV-1">
          <mxGeometry x="1763" y="1335" width="120" height="40" as="geometry" />
        </mxCell>
        <mxCell id="n9ziA0_ppnjwsiYsguU1-355" style="edgeStyle=orthogonalEdgeStyle;rounded=0;orthogonalLoop=1;jettySize=auto;html=1;exitX=0.5;exitY=0;exitDx=0;exitDy=0;entryX=0.5;entryY=1;entryDx=0;entryDy=0;endArrow=block;endFill=0;fontStyle=1" edge="1" parent="WIyWlLk6GJQsqaUBKTNV-1" source="n9ziA0_ppnjwsiYsguU1-357" target="n9ziA0_ppnjwsiYsguU1-358">
          <mxGeometry relative="1" as="geometry" />
        </mxCell>
        <mxCell id="n9ziA0_ppnjwsiYsguU1-356" value="&lt;font style=&quot;font-size: 17px;&quot;&gt;有&lt;/font&gt;" style="edgeStyle=orthogonalEdgeStyle;rounded=0;orthogonalLoop=1;jettySize=auto;html=1;exitX=1;exitY=0.5;exitDx=0;exitDy=0;entryX=0;entryY=0.5;entryDx=0;entryDy=0;endArrow=block;endFill=0;fontStyle=1" edge="1" parent="WIyWlLk6GJQsqaUBKTNV-1" source="n9ziA0_ppnjwsiYsguU1-357" target="n9ziA0_ppnjwsiYsguU1-359">
          <mxGeometry y="10" relative="1" as="geometry">
            <mxPoint as="offset" />
          </mxGeometry>
        </mxCell>
        <mxCell id="n9ziA0_ppnjwsiYsguU1-357" value="有无账号" style="rhombus;whiteSpace=wrap;html=1;shadow=0;fontFamily=Helvetica;fontSize=17;align=center;strokeWidth=1;spacing=6;spacingTop=-4;fontStyle=1" vertex="1" parent="WIyWlLk6GJQsqaUBKTNV-1">
          <mxGeometry x="2123" y="1205" width="100" height="80" as="geometry" />
        </mxCell>
        <mxCell id="n9ziA0_ppnjwsiYsguU1-358" value="注册账号" style="rounded=0;whiteSpace=wrap;html=1;fontSize=17;glass=0;strokeWidth=1;shadow=0;fontStyle=1" vertex="1" parent="WIyWlLk6GJQsqaUBKTNV-1">
          <mxGeometry x="2113" y="1115" width="120" height="40" as="geometry" />
        </mxCell>
        <mxCell id="n9ziA0_ppnjwsiYsguU1-359" value="登录" style="rounded=0;whiteSpace=wrap;html=1;fontSize=17;glass=0;strokeWidth=1;shadow=0;fontStyle=1" vertex="1" parent="WIyWlLk6GJQsqaUBKTNV-1">
          <mxGeometry x="2283" y="1225" width="120" height="40" as="geometry" />
        </mxCell>
        <mxCell id="n9ziA0_ppnjwsiYsguU1-360" value="&lt;font style=&quot;font-size: 17px;&quot;&gt;否&lt;/font&gt;" style="edgeStyle=orthogonalEdgeStyle;rounded=0;orthogonalLoop=1;jettySize=auto;html=1;exitX=0.5;exitY=0;exitDx=0;exitDy=0;entryX=0.5;entryY=0;entryDx=0;entryDy=0;endArrow=block;endFill=0;fontStyle=1" edge="1" parent="WIyWlLk6GJQsqaUBKTNV-1" source="n9ziA0_ppnjwsiYsguU1-363" target="n9ziA0_ppnjwsiYsguU1-359">
          <mxGeometry x="0.0403" y="-10" relative="1" as="geometry">
            <mxPoint as="offset" />
          </mxGeometry>
        </mxCell>
        <mxCell id="n9ziA0_ppnjwsiYsguU1-361" value="&lt;font style=&quot;font-size: 17px;&quot;&gt;是&lt;/font&gt;" style="edgeStyle=orthogonalEdgeStyle;rounded=0;orthogonalLoop=1;jettySize=auto;html=1;exitX=0.5;exitY=1;exitDx=0;exitDy=0;entryX=1;entryY=0.5;entryDx=0;entryDy=0;endArrow=block;endFill=0;fontStyle=1" edge="1" parent="WIyWlLk6GJQsqaUBKTNV-1" source="n9ziA0_ppnjwsiYsguU1-363" target="n9ziA0_ppnjwsiYsguU1-354">
          <mxGeometry x="-0.9474" y="-10" relative="1" as="geometry">
            <mxPoint as="offset" />
          </mxGeometry>
        </mxCell>
        <mxCell id="n9ziA0_ppnjwsiYsguU1-362" value="" style="edgeStyle=orthogonalEdgeStyle;rounded=0;orthogonalLoop=1;jettySize=auto;html=1;exitX=1;exitY=0.5;exitDx=0;exitDy=0;endArrow=block;endFill=0;fontStyle=1" edge="1" parent="WIyWlLk6GJQsqaUBKTNV-1" source="n9ziA0_ppnjwsiYsguU1-359" target="n9ziA0_ppnjwsiYsguU1-363">
          <mxGeometry relative="1" as="geometry">
            <mxPoint x="2483" y="1244.9259259259259" as="targetPoint" />
            <mxPoint x="2403" y="1245" as="sourcePoint" />
          </mxGeometry>
        </mxCell>
        <mxCell id="n9ziA0_ppnjwsiYsguU1-363" value="登录成功？" style="rhombus;whiteSpace=wrap;html=1;shadow=0;fontFamily=Helvetica;fontSize=17;align=center;strokeWidth=1;spacing=6;spacingTop=-4;fontStyle=1" vertex="1" parent="WIyWlLk6GJQsqaUBKTNV-1">
          <mxGeometry x="2432" y="1205" width="100" height="80" as="geometry" />
        </mxCell>
        <mxCell id="n9ziA0_ppnjwsiYsguU1-364" value="" style="rounded=0;html=1;jettySize=auto;orthogonalLoop=1;fontSize=17;endArrow=block;endFill=0;endSize=8;strokeWidth=1;shadow=0;labelBackgroundColor=none;edgeStyle=orthogonalEdgeStyle;fontStyle=1" edge="1" parent="WIyWlLk6GJQsqaUBKTNV-1" source="n9ziA0_ppnjwsiYsguU1-365" target="n9ziA0_ppnjwsiYsguU1-368">
          <mxGeometry relative="1" as="geometry" />
        </mxCell>
        <mxCell id="n9ziA0_ppnjwsiYsguU1-365" value="提交" style="rounded=0;whiteSpace=wrap;html=1;fontSize=17;glass=0;strokeWidth=1;shadow=0;fontStyle=1" vertex="1" parent="WIyWlLk6GJQsqaUBKTNV-1">
          <mxGeometry x="1969" y="1672" width="120" height="40" as="geometry" />
        </mxCell>
        <mxCell id="n9ziA0_ppnjwsiYsguU1-366" value="否" style="edgeStyle=orthogonalEdgeStyle;rounded=0;html=1;jettySize=auto;orthogonalLoop=1;fontSize=17;endArrow=block;endFill=0;endSize=8;strokeWidth=1;shadow=0;labelBackgroundColor=none;entryX=0;entryY=0.5;entryDx=0;entryDy=0;fontStyle=1" edge="1" parent="WIyWlLk6GJQsqaUBKTNV-1" source="n9ziA0_ppnjwsiYsguU1-368" target="n9ziA0_ppnjwsiYsguU1-376">
          <mxGeometry x="0.007" y="10" relative="1" as="geometry">
            <mxPoint as="offset" />
            <mxPoint x="2169" y="1782" as="targetPoint" />
          </mxGeometry>
        </mxCell>
        <mxCell id="n9ziA0_ppnjwsiYsguU1-367" value="&lt;font style=&quot;font-size: 17px;&quot;&gt;是&lt;/font&gt;" style="edgeStyle=orthogonalEdgeStyle;rounded=0;orthogonalLoop=1;jettySize=auto;html=1;exitX=0.5;exitY=1;exitDx=0;exitDy=0;entryX=0.5;entryY=0;entryDx=0;entryDy=0;labelPosition=right;verticalLabelPosition=middle;align=left;verticalAlign=middle;endArrow=block;endFill=0;fontStyle=1" edge="1" parent="WIyWlLk6GJQsqaUBKTNV-1" source="n9ziA0_ppnjwsiYsguU1-368" target="n9ziA0_ppnjwsiYsguU1-370">
          <mxGeometry x="0.007" relative="1" as="geometry">
            <mxPoint as="offset" />
            <mxPoint x="2029" y="1877" as="targetPoint" />
          </mxGeometry>
        </mxCell>
        <mxCell id="n9ziA0_ppnjwsiYsguU1-368" value="判断&lt;div&gt;信息是否合法&lt;/div&gt;" style="rhombus;whiteSpace=wrap;html=1;shadow=0;fontFamily=Helvetica;fontSize=17;align=center;strokeWidth=1;spacing=6;spacingTop=-4;fontStyle=1" vertex="1" parent="WIyWlLk6GJQsqaUBKTNV-1">
          <mxGeometry x="1979" y="1742" width="100" height="80" as="geometry" />
        </mxCell>
        <mxCell id="n9ziA0_ppnjwsiYsguU1-369" style="edgeStyle=orthogonalEdgeStyle;rounded=0;orthogonalLoop=1;jettySize=auto;html=1;exitX=0.5;exitY=1;exitDx=0;exitDy=0;entryX=0.5;entryY=0;entryDx=0;entryDy=0;endArrow=block;endFill=0;fontStyle=1" edge="1" parent="WIyWlLk6GJQsqaUBKTNV-1" source="n9ziA0_ppnjwsiYsguU1-370" target="n9ziA0_ppnjwsiYsguU1-377">
          <mxGeometry relative="1" as="geometry">
            <mxPoint x="2029" y="2038" as="targetPoint" />
          </mxGeometry>
        </mxCell>
        <mxCell id="n9ziA0_ppnjwsiYsguU1-370" value="更新个人信息" style="rounded=0;whiteSpace=wrap;html=1;fontSize=17;glass=0;strokeWidth=1;shadow=0;fontStyle=1" vertex="1" parent="WIyWlLk6GJQsqaUBKTNV-1">
          <mxGeometry x="1969" y="1858" width="120" height="40" as="geometry" />
        </mxCell>
        <mxCell id="n9ziA0_ppnjwsiYsguU1-371" value="" style="rounded=0;html=1;jettySize=auto;orthogonalLoop=1;fontSize=17;endArrow=block;endFill=0;endSize=8;strokeWidth=1;shadow=0;labelBackgroundColor=none;edgeStyle=orthogonalEdgeStyle;fontStyle=1" edge="1" parent="WIyWlLk6GJQsqaUBKTNV-1" source="n9ziA0_ppnjwsiYsguU1-372">
          <mxGeometry relative="1" as="geometry">
            <mxPoint x="2029" y="1672" as="targetPoint" />
          </mxGeometry>
        </mxCell>
        <mxCell id="n9ziA0_ppnjwsiYsguU1-372" value="修改个人信息" style="rounded=0;whiteSpace=wrap;html=1;fontSize=17;glass=0;strokeWidth=1;shadow=0;fontStyle=1" vertex="1" parent="WIyWlLk6GJQsqaUBKTNV-1">
          <mxGeometry x="1969" y="1602" width="120" height="40" as="geometry" />
        </mxCell>
        <mxCell id="n9ziA0_ppnjwsiYsguU1-373" value="" style="rounded=0;html=1;jettySize=auto;orthogonalLoop=1;fontSize=17;endArrow=block;endFill=0;endSize=8;strokeWidth=1;shadow=0;labelBackgroundColor=none;edgeStyle=orthogonalEdgeStyle;fontStyle=1" edge="1" parent="WIyWlLk6GJQsqaUBKTNV-1" source="n9ziA0_ppnjwsiYsguU1-374">
          <mxGeometry relative="1" as="geometry">
            <mxPoint x="2029" y="1602" as="targetPoint" />
          </mxGeometry>
        </mxCell>
        <mxCell id="n9ziA0_ppnjwsiYsguU1-374" value="进入&lt;div&gt;信息管理页面&lt;/div&gt;" style="rounded=0;whiteSpace=wrap;html=1;fontSize=17;glass=0;strokeWidth=1;shadow=0;fontStyle=1" vertex="1" parent="WIyWlLk6GJQsqaUBKTNV-1">
          <mxGeometry x="1969" y="1542" width="120" height="40" as="geometry" />
        </mxCell>
        <mxCell id="n9ziA0_ppnjwsiYsguU1-375" style="edgeStyle=orthogonalEdgeStyle;rounded=0;orthogonalLoop=1;jettySize=auto;html=1;exitX=0.5;exitY=0;exitDx=0;exitDy=0;entryX=1;entryY=0.5;entryDx=0;entryDy=0;endArrow=block;endFill=0;fontStyle=1" edge="1" parent="WIyWlLk6GJQsqaUBKTNV-1" source="n9ziA0_ppnjwsiYsguU1-376" target="n9ziA0_ppnjwsiYsguU1-374">
          <mxGeometry relative="1" as="geometry" />
        </mxCell>
        <mxCell id="n9ziA0_ppnjwsiYsguU1-376" value="&lt;font style=&quot;font-size: 17px;&quot;&gt;提示&lt;/font&gt;&lt;div&gt;&lt;span style=&quot;font-size: 17px;&quot;&gt;信息不合法&lt;/span&gt;&lt;/div&gt;" style="shape=parallelogram;perimeter=parallelogramPerimeter;whiteSpace=wrap;html=1;fixedSize=1;fontStyle=1" vertex="1" parent="WIyWlLk6GJQsqaUBKTNV-1">
          <mxGeometry x="2179" y="1752" width="120" height="60" as="geometry" />
        </mxCell>
        <mxCell id="n9ziA0_ppnjwsiYsguU1-377" value="结束" style="rounded=1;whiteSpace=wrap;html=1;fontSize=17;glass=0;strokeWidth=1;shadow=0;perimeter=rectanglePerimeter;arcSize=50;fontStyle=1" vertex="1" parent="WIyWlLk6GJQsqaUBKTNV-1">
          <mxGeometry x="1969" y="1928" width="120" height="40" as="geometry" />
        </mxCell>
        <mxCell id="n9ziA0_ppnjwsiYsguU1-378" value="" style="rounded=0;html=1;jettySize=auto;orthogonalLoop=1;fontSize=17;endArrow=block;endFill=0;endSize=8;strokeWidth=1;shadow=0;labelBackgroundColor=none;edgeStyle=orthogonalEdgeStyle;fontStyle=1" edge="1" parent="WIyWlLk6GJQsqaUBKTNV-1" source="n9ziA0_ppnjwsiYsguU1-379" target="n9ziA0_ppnjwsiYsguU1-382">
          <mxGeometry relative="1" as="geometry" />
        </mxCell>
        <mxCell id="n9ziA0_ppnjwsiYsguU1-379" value="选择时间范围" style="rounded=0;whiteSpace=wrap;html=1;fontSize=17;glass=0;strokeWidth=1;shadow=0;fontStyle=1" vertex="1" parent="WIyWlLk6GJQsqaUBKTNV-1">
          <mxGeometry x="2338" y="1672" width="120" height="40" as="geometry" />
        </mxCell>
        <mxCell id="n9ziA0_ppnjwsiYsguU1-380" value="否" style="edgeStyle=orthogonalEdgeStyle;rounded=0;html=1;jettySize=auto;orthogonalLoop=1;fontSize=17;endArrow=block;endFill=0;endSize=8;strokeWidth=1;shadow=0;labelBackgroundColor=none;entryX=0;entryY=0.5;entryDx=0;entryDy=0;fontStyle=1" edge="1" parent="WIyWlLk6GJQsqaUBKTNV-1" source="n9ziA0_ppnjwsiYsguU1-382" target="n9ziA0_ppnjwsiYsguU1-388">
          <mxGeometry x="0.007" y="10" relative="1" as="geometry">
            <mxPoint as="offset" />
            <mxPoint x="2538" y="1782" as="targetPoint" />
          </mxGeometry>
        </mxCell>
        <mxCell id="n9ziA0_ppnjwsiYsguU1-381" value="&lt;font style=&quot;font-size: 17px;&quot;&gt;是&lt;/font&gt;" style="edgeStyle=orthogonalEdgeStyle;rounded=0;orthogonalLoop=1;jettySize=auto;html=1;exitX=0.5;exitY=1;exitDx=0;exitDy=0;entryX=0.5;entryY=0;entryDx=0;entryDy=0;labelPosition=right;verticalLabelPosition=middle;align=left;verticalAlign=middle;endArrow=block;endFill=0;fontStyle=1" edge="1" parent="WIyWlLk6GJQsqaUBKTNV-1" source="n9ziA0_ppnjwsiYsguU1-382">
          <mxGeometry x="0.007" relative="1" as="geometry">
            <mxPoint as="offset" />
            <mxPoint x="2398" y="1858" as="targetPoint" />
          </mxGeometry>
        </mxCell>
        <mxCell id="n9ziA0_ppnjwsiYsguU1-382" value="判断&lt;div&gt;时间范围&lt;/div&gt;&lt;div&gt;合法性&lt;/div&gt;" style="rhombus;whiteSpace=wrap;html=1;shadow=0;fontFamily=Helvetica;fontSize=17;align=center;strokeWidth=1;spacing=6;spacingTop=-4;fontStyle=1" vertex="1" parent="WIyWlLk6GJQsqaUBKTNV-1">
          <mxGeometry x="2348" y="1742" width="100" height="80" as="geometry" />
        </mxCell>
        <mxCell id="n9ziA0_ppnjwsiYsguU1-383" value="" style="rounded=0;html=1;jettySize=auto;orthogonalLoop=1;fontSize=17;endArrow=block;endFill=0;endSize=8;strokeWidth=1;shadow=0;labelBackgroundColor=none;edgeStyle=orthogonalEdgeStyle;fontStyle=1" edge="1" parent="WIyWlLk6GJQsqaUBKTNV-1" source="n9ziA0_ppnjwsiYsguU1-384">
          <mxGeometry relative="1" as="geometry">
            <mxPoint x="2398" y="1672" as="targetPoint" />
          </mxGeometry>
        </mxCell>
        <mxCell id="n9ziA0_ppnjwsiYsguU1-384" value="选择类型&lt;div&gt;&lt;font style=&quot;font-size: 16px;&quot;&gt;(学生/商家)&lt;/font&gt;&lt;/div&gt;" style="rounded=0;whiteSpace=wrap;html=1;fontSize=17;glass=0;strokeWidth=1;shadow=0;fontStyle=1" vertex="1" parent="WIyWlLk6GJQsqaUBKTNV-1">
          <mxGeometry x="2338" y="1602" width="120" height="40" as="geometry" />
        </mxCell>
        <mxCell id="n9ziA0_ppnjwsiYsguU1-385" value="" style="rounded=0;html=1;jettySize=auto;orthogonalLoop=1;fontSize=17;endArrow=block;endFill=0;endSize=8;strokeWidth=1;shadow=0;labelBackgroundColor=none;edgeStyle=orthogonalEdgeStyle;fontStyle=1" edge="1" parent="WIyWlLk6GJQsqaUBKTNV-1" source="n9ziA0_ppnjwsiYsguU1-386">
          <mxGeometry relative="1" as="geometry">
            <mxPoint x="2398" y="1602" as="targetPoint" />
          </mxGeometry>
        </mxCell>
        <mxCell id="n9ziA0_ppnjwsiYsguU1-386" value="进入&lt;div&gt;账单查询页面&lt;/div&gt;" style="rounded=0;whiteSpace=wrap;html=1;fontSize=17;glass=0;strokeWidth=1;shadow=0;fontStyle=1" vertex="1" parent="WIyWlLk6GJQsqaUBKTNV-1">
          <mxGeometry x="2338" y="1542" width="120" height="40" as="geometry" />
        </mxCell>
        <mxCell id="n9ziA0_ppnjwsiYsguU1-387" style="edgeStyle=orthogonalEdgeStyle;rounded=0;orthogonalLoop=1;jettySize=auto;html=1;exitX=0.5;exitY=0;exitDx=0;exitDy=0;entryX=1;entryY=0.5;entryDx=0;entryDy=0;endArrow=block;endFill=0;fontStyle=1" edge="1" parent="WIyWlLk6GJQsqaUBKTNV-1" source="n9ziA0_ppnjwsiYsguU1-388" target="n9ziA0_ppnjwsiYsguU1-386">
          <mxGeometry relative="1" as="geometry" />
        </mxCell>
        <mxCell id="n9ziA0_ppnjwsiYsguU1-388" value="&lt;font style=&quot;font-size: 17px;&quot;&gt;提示&lt;/font&gt;&lt;div&gt;&lt;span style=&quot;font-size: 17px;&quot;&gt;时间不合法&lt;/span&gt;&lt;/div&gt;" style="shape=parallelogram;perimeter=parallelogramPerimeter;whiteSpace=wrap;html=1;fixedSize=1;fontStyle=1" vertex="1" parent="WIyWlLk6GJQsqaUBKTNV-1">
          <mxGeometry x="2548" y="1752" width="120" height="60" as="geometry" />
        </mxCell>
        <mxCell id="n9ziA0_ppnjwsiYsguU1-389" value="结束" style="rounded=1;whiteSpace=wrap;html=1;fontSize=17;glass=0;strokeWidth=1;shadow=0;perimeter=rectanglePerimeter;arcSize=50;fontStyle=1" vertex="1" parent="WIyWlLk6GJQsqaUBKTNV-1">
          <mxGeometry x="2337" y="2079" width="120" height="40" as="geometry" />
        </mxCell>
        <mxCell id="n9ziA0_ppnjwsiYsguU1-390" style="edgeStyle=orthogonalEdgeStyle;rounded=0;orthogonalLoop=1;jettySize=auto;html=1;exitX=0;exitY=0.5;exitDx=0;exitDy=0;entryX=0.5;entryY=0;entryDx=0;entryDy=0;endArrow=block;endFill=0;fontStyle=1" edge="1" parent="WIyWlLk6GJQsqaUBKTNV-1" source="n9ziA0_ppnjwsiYsguU1-393" target="n9ziA0_ppnjwsiYsguU1-397">
          <mxGeometry relative="1" as="geometry" />
        </mxCell>
        <mxCell id="n9ziA0_ppnjwsiYsguU1-391" value="&lt;font style=&quot;font-size: 17px;&quot;&gt;表格形式&lt;/font&gt;" style="edgeLabel;html=1;align=center;verticalAlign=middle;resizable=0;points=[];fontStyle=1" vertex="1" connectable="0" parent="n9ziA0_ppnjwsiYsguU1-390">
          <mxGeometry x="-0.3628" y="-1" relative="1" as="geometry">
            <mxPoint x="5" y="-10" as="offset" />
          </mxGeometry>
        </mxCell>
        <mxCell id="n9ziA0_ppnjwsiYsguU1-392" value="&lt;font style=&quot;font-size: 17px;&quot;&gt;统计图形式&lt;/font&gt;" style="edgeStyle=orthogonalEdgeStyle;rounded=0;orthogonalLoop=1;jettySize=auto;html=1;exitX=1;exitY=0.5;exitDx=0;exitDy=0;entryX=0.5;entryY=0;entryDx=0;entryDy=0;endArrow=block;endFill=0;fontStyle=1" edge="1" parent="WIyWlLk6GJQsqaUBKTNV-1" source="n9ziA0_ppnjwsiYsguU1-393" target="n9ziA0_ppnjwsiYsguU1-399">
          <mxGeometry x="-0.3625" y="15" relative="1" as="geometry">
            <mxPoint as="offset" />
          </mxGeometry>
        </mxCell>
        <mxCell id="n9ziA0_ppnjwsiYsguU1-393" value="判断&lt;div&gt;展示形式&lt;/div&gt;" style="rhombus;whiteSpace=wrap;html=1;shadow=0;fontFamily=Helvetica;fontSize=17;align=center;strokeWidth=1;spacing=6;spacingTop=-4;fontStyle=1" vertex="1" parent="WIyWlLk6GJQsqaUBKTNV-1">
          <mxGeometry x="2348" y="1928" width="100" height="80" as="geometry" />
        </mxCell>
        <mxCell id="n9ziA0_ppnjwsiYsguU1-394" style="edgeStyle=orthogonalEdgeStyle;rounded=0;orthogonalLoop=1;jettySize=auto;html=1;exitX=0.5;exitY=1;exitDx=0;exitDy=0;entryX=0.5;entryY=0;entryDx=0;entryDy=0;fontStyle=1;endArrow=block;endFill=0;" edge="1" parent="WIyWlLk6GJQsqaUBKTNV-1" source="n9ziA0_ppnjwsiYsguU1-395" target="n9ziA0_ppnjwsiYsguU1-393">
          <mxGeometry relative="1" as="geometry" />
        </mxCell>
        <mxCell id="n9ziA0_ppnjwsiYsguU1-395" value="选择展示形式" style="rounded=0;whiteSpace=wrap;html=1;fontSize=17;glass=0;strokeWidth=1;shadow=0;fontStyle=1" vertex="1" parent="WIyWlLk6GJQsqaUBKTNV-1">
          <mxGeometry x="2338" y="1858" width="120" height="40" as="geometry" />
        </mxCell>
        <mxCell id="n9ziA0_ppnjwsiYsguU1-396" style="edgeStyle=orthogonalEdgeStyle;rounded=0;orthogonalLoop=1;jettySize=auto;html=1;exitX=0.5;exitY=1;exitDx=0;exitDy=0;entryX=0.5;entryY=0;entryDx=0;entryDy=0;endArrow=block;endFill=0;fontStyle=1" edge="1" parent="WIyWlLk6GJQsqaUBKTNV-1" source="n9ziA0_ppnjwsiYsguU1-397" target="n9ziA0_ppnjwsiYsguU1-389">
          <mxGeometry relative="1" as="geometry" />
        </mxCell>
        <mxCell id="n9ziA0_ppnjwsiYsguU1-397" value="生成表格" style="rounded=0;whiteSpace=wrap;html=1;fontSize=17;glass=0;strokeWidth=1;shadow=0;fontStyle=1" vertex="1" parent="WIyWlLk6GJQsqaUBKTNV-1">
          <mxGeometry x="2208" y="1997" width="120" height="40" as="geometry" />
        </mxCell>
        <mxCell id="n9ziA0_ppnjwsiYsguU1-398" style="edgeStyle=orthogonalEdgeStyle;rounded=0;orthogonalLoop=1;jettySize=auto;html=1;exitX=0.5;exitY=1;exitDx=0;exitDy=0;entryX=0.5;entryY=0;entryDx=0;entryDy=0;endArrow=block;endFill=0;fontStyle=1" edge="1" parent="WIyWlLk6GJQsqaUBKTNV-1" source="n9ziA0_ppnjwsiYsguU1-399" target="n9ziA0_ppnjwsiYsguU1-389">
          <mxGeometry relative="1" as="geometry" />
        </mxCell>
        <mxCell id="n9ziA0_ppnjwsiYsguU1-399" value="生成统计图" style="rounded=0;whiteSpace=wrap;html=1;fontSize=17;glass=0;strokeWidth=1;shadow=0;fontStyle=1" vertex="1" parent="WIyWlLk6GJQsqaUBKTNV-1">
          <mxGeometry x="2468" y="1997" width="120" height="40" as="geometry" />
        </mxCell>
        <mxCell id="n9ziA0_ppnjwsiYsguU1-400" value="" style="rounded=0;html=1;jettySize=auto;orthogonalLoop=1;fontSize=17;endArrow=block;endFill=0;endSize=8;strokeWidth=1;shadow=0;labelBackgroundColor=none;edgeStyle=orthogonalEdgeStyle;fontStyle=1;exitX=0.5;exitY=1;exitDx=0;exitDy=0;" edge="1" parent="WIyWlLk6GJQsqaUBKTNV-1" source="n9ziA0_ppnjwsiYsguU1-405" target="n9ziA0_ppnjwsiYsguU1-403">
          <mxGeometry relative="1" as="geometry">
            <mxPoint x="2756" y="1714.5" as="sourcePoint" />
          </mxGeometry>
        </mxCell>
        <mxCell id="n9ziA0_ppnjwsiYsguU1-401" value="非法" style="edgeStyle=orthogonalEdgeStyle;rounded=0;html=1;jettySize=auto;orthogonalLoop=1;fontSize=17;endArrow=block;endFill=0;endSize=8;strokeWidth=1;shadow=0;labelBackgroundColor=none;entryX=0;entryY=0.5;entryDx=0;entryDy=0;fontStyle=1" edge="1" parent="WIyWlLk6GJQsqaUBKTNV-1" source="n9ziA0_ppnjwsiYsguU1-403" target="n9ziA0_ppnjwsiYsguU1-409">
          <mxGeometry x="0.0043" y="10" relative="1" as="geometry">
            <mxPoint as="offset" />
            <mxPoint x="2896" y="1760" as="targetPoint" />
          </mxGeometry>
        </mxCell>
        <mxCell id="n9ziA0_ppnjwsiYsguU1-402" value="&lt;font style=&quot;font-size: 17px;&quot;&gt;合法&lt;/font&gt;" style="edgeStyle=orthogonalEdgeStyle;rounded=0;orthogonalLoop=1;jettySize=auto;html=1;exitX=0.5;exitY=1;exitDx=0;exitDy=0;entryX=0.5;entryY=0;entryDx=0;entryDy=0;labelPosition=right;verticalLabelPosition=middle;align=left;verticalAlign=middle;endArrow=block;endFill=0;fontStyle=1" edge="1" parent="WIyWlLk6GJQsqaUBKTNV-1" source="n9ziA0_ppnjwsiYsguU1-403" target="n9ziA0_ppnjwsiYsguU1-404">
          <mxGeometry x="0.0043" relative="1" as="geometry">
            <mxPoint as="offset" />
            <mxPoint x="2756" y="1855" as="targetPoint" />
          </mxGeometry>
        </mxCell>
        <mxCell id="n9ziA0_ppnjwsiYsguU1-403" value="信息&lt;div&gt;合法性？&lt;/div&gt;" style="rhombus;whiteSpace=wrap;html=1;shadow=0;fontFamily=Helvetica;fontSize=17;align=center;strokeWidth=1;spacing=6;spacingTop=-4;fontStyle=1" vertex="1" parent="WIyWlLk6GJQsqaUBKTNV-1">
          <mxGeometry x="2706" y="1720" width="100" height="80" as="geometry" />
        </mxCell>
        <mxCell id="n9ziA0_ppnjwsiYsguU1-404" value="更新用户信息" style="rounded=0;whiteSpace=wrap;html=1;fontSize=17;glass=0;strokeWidth=1;shadow=0;fontStyle=1" vertex="1" parent="WIyWlLk6GJQsqaUBKTNV-1">
          <mxGeometry x="2696" y="1839" width="120" height="40" as="geometry" />
        </mxCell>
        <mxCell id="n9ziA0_ppnjwsiYsguU1-405" value="选择校园卡" style="rounded=0;whiteSpace=wrap;html=1;fontSize=17;glass=0;strokeWidth=1;shadow=0;fontStyle=1" vertex="1" parent="WIyWlLk6GJQsqaUBKTNV-1">
          <mxGeometry x="2696" y="1604.5" width="120" height="40" as="geometry" />
        </mxCell>
        <mxCell id="n9ziA0_ppnjwsiYsguU1-406" value="" style="rounded=0;html=1;jettySize=auto;orthogonalLoop=1;fontSize=17;endArrow=block;endFill=0;endSize=8;strokeWidth=1;shadow=0;labelBackgroundColor=none;edgeStyle=orthogonalEdgeStyle;fontStyle=1" edge="1" parent="WIyWlLk6GJQsqaUBKTNV-1" source="n9ziA0_ppnjwsiYsguU1-407">
          <mxGeometry relative="1" as="geometry">
            <mxPoint x="2756" y="1604.5" as="targetPoint" />
          </mxGeometry>
        </mxCell>
        <mxCell id="n9ziA0_ppnjwsiYsguU1-407" value="进入&lt;span style=&quot;background-color: initial;&quot;&gt;校园卡&lt;/span&gt;&lt;div&gt;状态管理&lt;/div&gt;" style="rounded=0;whiteSpace=wrap;html=1;fontSize=17;glass=0;strokeWidth=1;shadow=0;fontStyle=1" vertex="1" parent="WIyWlLk6GJQsqaUBKTNV-1">
          <mxGeometry x="2696" y="1544.5" width="120" height="40" as="geometry" />
        </mxCell>
        <mxCell id="n9ziA0_ppnjwsiYsguU1-408" style="edgeStyle=orthogonalEdgeStyle;rounded=0;orthogonalLoop=1;jettySize=auto;html=1;exitX=0.5;exitY=0;exitDx=0;exitDy=0;entryX=1;entryY=0.5;entryDx=0;entryDy=0;fontStyle=1" edge="1" parent="WIyWlLk6GJQsqaUBKTNV-1" source="n9ziA0_ppnjwsiYsguU1-409" target="n9ziA0_ppnjwsiYsguU1-407">
          <mxGeometry relative="1" as="geometry" />
        </mxCell>
        <mxCell id="n9ziA0_ppnjwsiYsguU1-409" value="&lt;font style=&quot;font-size: 17px;&quot;&gt;提示&lt;/font&gt;&lt;div&gt;&lt;span style=&quot;font-size: 17px;&quot;&gt;修改信息非法&lt;/span&gt;&lt;/div&gt;" style="shape=parallelogram;perimeter=parallelogramPerimeter;whiteSpace=wrap;html=1;fixedSize=1;fontStyle=1" vertex="1" parent="WIyWlLk6GJQsqaUBKTNV-1">
          <mxGeometry x="2868" y="1730" width="120" height="60" as="geometry" />
        </mxCell>
        <mxCell id="n9ziA0_ppnjwsiYsguU1-410" value="结束" style="rounded=1;whiteSpace=wrap;html=1;fontSize=17;glass=0;strokeWidth=1;shadow=0;perimeter=rectanglePerimeter;arcSize=50;fontStyle=1" vertex="1" parent="WIyWlLk6GJQsqaUBKTNV-1">
          <mxGeometry x="2696" y="1907" width="120" height="40" as="geometry" />
        </mxCell>
        <mxCell id="n9ziA0_ppnjwsiYsguU1-411" value="" style="rounded=0;html=1;jettySize=auto;orthogonalLoop=1;fontSize=17;endArrow=block;endFill=0;endSize=8;strokeWidth=1;shadow=0;labelBackgroundColor=none;edgeStyle=orthogonalEdgeStyle;entryX=0.5;entryY=0;entryDx=0;entryDy=0;fontStyle=1;exitX=0.5;exitY=1;exitDx=0;exitDy=0;" edge="1" parent="WIyWlLk6GJQsqaUBKTNV-1" source="n9ziA0_ppnjwsiYsguU1-404" target="n9ziA0_ppnjwsiYsguU1-410">
          <mxGeometry relative="1" as="geometry">
            <mxPoint x="2906" y="2030" as="targetPoint" />
            <mxPoint x="2756" y="2020" as="sourcePoint" />
          </mxGeometry>
        </mxCell>
      </root>
    </mxGraphModel>
  </diagram>
</mxfile>
